<?xml version="1.0" encoding="UTF-8"?> <svg xmlns="http://www.w3.org/2000/svg" width="195" height="349" viewBox="0 0 195 349" fill="none"><path d="M178.875 199.5C178.875 204.888 176.861 207.657 175.078 210.094C173.445 212.332 172.036 214.264 172.036 218.375C172.036 222.487 173.404 224.451 174.995 226.764C176.703 229.259 178.643 232.078 178.643 237.375C178.643 242.672 176.72 245.225 175.029 247.621C173.42 249.884 172.036 251.84 172.036 256.009C172.036 257.104 171.215 257.991 170.212 257.991C169.209 257.991 168.389 257.104 168.389 256.009C168.389 250.489 170.378 247.687 172.136 245.208C173.669 243.045 174.995 241.18 174.995 237.383C174.995 233.396 173.636 231.423 172.069 229.135C170.345 226.623 168.389 223.772 168.389 218.384C168.389 212.995 170.428 210.111 172.218 207.649C173.835 205.435 175.227 203.521 175.227 199.509C175.227 195.496 173.868 193.747 172.301 191.559C170.519 189.08 168.505 186.262 168.505 180.758C168.505 179.664 169.325 178.777 170.328 178.777C171.331 178.777 172.152 179.664 172.152 180.758C172.152 184.911 173.553 186.867 175.178 189.13C176.91 191.542 178.875 194.286 178.875 199.509L178.875 199.5Z" fill="#006F60"></path><path d="M163.539 199.5C163.539 204.888 161.525 207.657 159.743 210.094C158.11 212.332 156.701 214.264 156.701 218.375C156.701 222.487 158.068 224.452 159.66 226.764C161.368 229.259 163.307 232.078 163.307 237.375C163.307 242.672 161.384 245.225 159.693 247.621C158.491 249.312 157.463 250.771 156.974 253.083C156.75 254.153 155.78 254.816 154.794 254.575C153.808 254.335 153.194 253.282 153.418 252.213C154.073 249.046 155.523 247.007 156.8 245.208C158.334 243.045 159.66 241.18 159.66 237.383C159.66 233.396 158.3 231.423 156.734 229.135C155.01 226.623 153.053 223.772 153.053 218.384C153.053 212.996 155.092 210.111 156.883 207.649C158.499 205.436 159.892 203.521 159.892 199.509C159.892 195.497 158.533 193.747 156.966 191.559C155.64 189.71 154.131 187.613 153.493 184.314C153.277 183.245 153.915 182.2 154.902 181.968C155.888 181.736 156.858 182.424 157.065 183.493C157.538 185.906 158.607 187.398 159.851 189.13C161.583 191.542 163.548 194.286 163.548 199.509L163.539 199.5Z" fill="#006F60"></path><path d="M194.21 199.5C194.21 204.888 192.196 207.657 190.414 210.094C188.781 212.332 187.371 214.264 187.371 218.375C187.371 222.487 188.739 224.451 190.331 226.764C192.038 229.259 193.978 232.078 193.978 237.375C193.978 242.672 192.055 245.225 190.364 247.62C189.162 249.312 188.134 250.77 187.645 253.083C187.421 254.153 186.451 254.816 185.465 254.575C184.478 254.335 183.865 253.282 184.089 252.213C184.744 249.046 186.194 247.007 187.471 245.208C189.004 243.045 190.331 241.18 190.331 237.383C190.331 233.396 188.971 231.423 187.405 229.135C185.68 226.623 183.724 223.772 183.724 218.384C183.724 212.995 185.763 210.111 187.554 207.649C189.17 205.435 190.563 203.521 190.563 199.508C190.563 195.496 189.203 193.747 187.637 191.559C186.31 189.71 184.802 187.613 184.163 184.314C183.948 183.245 184.586 182.2 185.573 181.968C186.559 181.744 187.529 182.424 187.736 183.493C188.209 185.905 189.278 187.398 190.521 189.13C192.246 191.534 194.21 194.27 194.21 199.5Z" fill="#006F60"></path><path d="M178.875 20.7236C178.875 26.1118 176.861 28.8805 175.078 31.3175C173.445 33.5557 172.036 35.4871 172.036 39.5987C172.036 43.7103 173.404 45.6749 174.995 47.9876C176.703 50.4828 178.643 53.3012 178.643 58.5981C178.643 63.8951 176.72 66.4482 175.029 68.8439C173.42 71.1069 172.036 73.0632 172.036 77.2328C172.036 78.327 171.215 79.214 170.212 79.214C169.209 79.214 168.389 78.327 168.389 77.2328C168.389 71.712 170.378 68.9102 172.136 66.4317C173.669 64.2681 174.995 62.403 174.995 58.6064C174.995 54.6192 173.636 52.6463 172.069 50.3584C170.345 47.8467 168.389 44.9951 168.389 39.607C168.389 34.2189 170.428 31.3341 172.218 28.8722C173.835 26.6589 175.227 24.744 175.227 20.7319C175.227 16.7198 173.868 14.9707 172.301 12.7823C170.519 10.3038 168.505 7.48537 168.505 1.98118C168.505 0.88697 169.325 -1.08775e-06 170.328 -1.04391e-06C171.331 -1.00006e-06 172.152 0.88697 172.152 1.98118C172.152 6.13419 173.553 8.0905 175.178 10.3535C176.91 12.7658 178.875 15.5096 178.875 20.7319L178.875 20.7236Z" fill="#006F60"></path><path d="M163.539 20.7237C163.539 26.1119 161.525 28.8805 159.743 31.3176C158.11 33.5558 156.701 35.4872 156.701 39.5988C156.701 43.7104 158.068 45.675 159.66 47.9877C161.368 50.4829 163.307 53.3013 163.307 58.5982C163.307 63.8952 161.384 66.4483 159.693 68.844C158.491 70.535 157.463 71.994 156.974 74.3067C156.75 75.3761 155.78 76.0392 154.794 75.7988C153.808 75.5584 153.194 74.5057 153.418 73.4363C154.073 70.2698 155.523 68.2306 156.8 66.4318C158.334 64.2682 159.66 62.4031 159.66 58.6065C159.66 54.6193 158.3 52.6464 156.734 50.3585C155.01 47.8468 153.053 44.9952 153.053 39.6071C153.053 34.2189 155.092 31.3342 156.883 28.8723C158.499 26.659 159.892 24.7441 159.892 20.732C159.892 16.7199 158.533 14.9708 156.966 12.7824C155.64 10.9339 154.131 8.83665 153.493 5.53745C153.277 4.46811 153.915 3.42364 154.902 3.19153C155.888 2.95943 156.858 3.64745 157.065 4.71679C157.538 7.12902 158.607 8.62112 159.851 10.3536C161.583 12.7658 163.548 15.5097 163.548 20.732L163.539 20.7237Z" fill="#006F60"></path><path d="M194.21 20.7236C194.21 26.1117 192.196 28.8804 190.414 31.3175C188.781 33.5557 187.371 35.4871 187.371 39.5987C187.371 43.7102 188.739 45.6748 190.331 47.9876C192.038 50.4827 193.978 53.3011 193.978 58.5981C193.978 63.8951 192.055 66.4482 190.364 68.8438C189.162 70.5349 188.134 71.9939 187.645 74.3066C187.421 75.3759 186.451 76.0391 185.465 75.7987C184.478 75.5583 183.865 74.5055 184.089 73.4362C184.744 70.2696 186.194 68.2304 187.471 66.4316C189.004 64.2681 190.331 62.4029 190.331 58.6064C190.331 54.6192 188.971 52.6463 187.405 50.3584C185.68 47.8467 183.724 44.9951 183.724 39.607C183.724 34.2188 185.763 31.3341 187.554 28.8721C189.17 26.6588 190.563 24.744 190.563 20.7319C190.563 16.7198 189.203 14.9707 187.637 12.7823C186.31 10.9337 184.802 8.83651 184.163 5.53731C183.948 4.46797 184.586 3.4235 185.573 3.19139C186.559 2.96758 187.529 3.64731 187.736 4.71665C188.209 7.12888 189.278 8.62099 190.521 10.3535C192.246 12.7574 194.21 15.4929 194.21 20.7236Z" fill="#006F60"></path><path d="M77.2682 199.5C77.2682 204.888 75.2538 207.657 73.4716 210.094C71.8386 212.332 70.4294 214.264 70.4294 218.375C70.4294 222.487 71.7971 224.451 73.3887 226.764C75.0963 229.259 77.0361 232.078 77.0361 237.375C77.0361 242.672 75.1129 245.225 73.4219 247.621C71.8137 249.884 70.4294 251.84 70.4294 256.009C70.4294 257.104 69.6087 257.991 68.6057 257.991C67.6027 257.991 66.782 257.104 66.782 256.009C66.782 250.489 68.7715 247.687 70.5288 245.208C72.0624 243.045 73.3887 241.18 73.3887 237.383C73.3887 233.396 72.0292 231.423 70.4625 229.135C68.7383 226.623 66.782 223.772 66.782 218.384C66.782 212.995 68.8212 210.111 70.6117 207.649C72.2282 205.435 73.6208 203.521 73.6208 199.509C73.6208 195.496 72.2613 193.747 70.6946 191.559C68.9124 189.08 66.8981 186.262 66.8981 180.758C66.8981 179.664 67.7187 178.777 68.7217 178.777C69.7248 178.777 70.5454 179.664 70.5454 180.758C70.5454 184.911 71.9463 186.867 73.5711 189.13C75.3036 191.542 77.2682 194.286 77.2682 199.509L77.2682 199.5Z" fill="#006F60"></path><path d="M61.9327 199.5C61.9327 204.888 59.9183 207.657 58.1361 210.094C56.5031 212.332 55.0939 214.264 55.0939 218.375C55.0939 222.487 56.4616 224.452 58.0532 226.764C59.7608 229.259 61.7006 232.078 61.7006 237.375C61.7006 242.672 59.7774 245.225 58.0864 247.621C56.8844 249.312 55.8565 250.771 55.3674 253.083C55.1436 254.153 54.1737 254.816 53.1873 254.575C52.2008 254.335 51.5874 253.282 51.8112 252.213C52.4661 249.046 53.9168 247.007 55.1933 245.208C56.7269 243.045 58.0532 241.18 58.0532 237.383C58.0532 233.396 56.6937 231.423 55.127 229.135C53.4028 226.623 51.4465 223.772 51.4465 218.384C51.4465 212.996 53.4857 210.111 55.2762 207.649C56.8927 205.436 58.2853 203.521 58.2853 199.509C58.2853 195.497 56.9258 193.747 55.3591 191.559C54.0328 189.71 52.5241 187.613 51.8859 184.314C51.6703 183.245 52.3086 182.2 53.2951 181.968C54.2815 181.736 55.2514 182.424 55.4586 183.493C55.9311 185.906 57.0004 187.398 58.2439 189.13C59.9764 191.542 61.941 194.286 61.941 199.509L61.9327 199.5Z" fill="#006F60"></path><path d="M92.6035 199.5C92.6035 204.888 90.5892 207.657 88.8069 210.094C87.1739 212.332 85.7647 214.264 85.7647 218.375C85.7647 222.487 87.1325 224.451 88.7241 226.764C90.4317 229.259 92.3714 232.078 92.3714 237.375C92.3714 242.672 90.4483 245.225 88.7572 247.62C87.5552 249.312 86.5273 250.77 86.0383 253.083C85.8145 254.153 84.8446 254.816 83.8581 254.575C82.8717 254.335 82.2583 253.282 82.4821 252.213C83.137 249.046 84.5876 247.007 85.8642 245.208C87.3977 243.045 88.724 241.18 88.724 237.383C88.7241 233.396 87.3646 231.423 85.7979 229.135C84.0737 226.623 82.1174 223.772 82.1174 218.384C82.1174 212.995 84.1566 210.111 85.9471 207.649C87.5635 205.435 88.9562 203.521 88.9562 199.508C88.9562 195.496 87.5967 193.747 86.03 191.559C84.7037 189.71 83.195 187.613 82.5567 184.314C82.3412 183.245 82.9795 182.2 83.9659 181.968C84.9524 181.744 85.9222 182.424 86.1295 183.493C86.602 185.905 87.6713 187.398 88.9147 189.13C90.6389 191.534 92.6035 194.27 92.6035 199.5Z" fill="#006F60"></path><path d="M77.2682 20.7236C77.2682 26.1118 75.2538 28.8805 73.4716 31.3175C71.8386 33.5557 70.4294 35.4871 70.4294 39.5987C70.4294 43.7103 71.7971 45.6749 73.3887 47.9876C75.0963 50.4828 77.0361 53.3012 77.0361 58.5981C77.0361 63.8951 75.1129 66.4482 73.4219 68.8439C71.8137 71.1069 70.4294 73.0632 70.4294 77.2328C70.4294 78.327 69.6087 79.214 68.6057 79.214C67.6027 79.214 66.782 78.327 66.782 77.2328C66.782 71.712 68.7715 68.9102 70.5288 66.4317C72.0624 64.2681 73.3887 62.403 73.3887 58.6064C73.3887 54.6192 72.0292 52.6463 70.4625 50.3584C68.7383 47.8467 66.782 44.9951 66.782 39.607C66.782 34.2189 68.8212 31.3341 70.6117 28.8722C72.2282 26.6589 73.6208 24.744 73.6208 20.7319C73.6208 16.7198 72.2613 14.9707 70.6946 12.7823C68.9124 10.3038 66.8981 7.48537 66.8981 1.98118C66.8981 0.88697 67.7187 -1.08775e-06 68.7217 -1.04391e-06C69.7248 -1.00006e-06 70.5454 0.88697 70.5454 1.98118C70.5454 6.13419 71.9463 8.0905 73.5711 10.3535C75.3036 12.7658 77.2682 15.5096 77.2682 20.7319L77.2682 20.7236Z" fill="#006F60"></path><path d="M61.9327 20.7237C61.9327 26.1119 59.9183 28.8805 58.1361 31.3176C56.5031 33.5558 55.0939 35.4872 55.0939 39.5988C55.0939 43.7104 56.4616 45.675 58.0532 47.9877C59.7608 50.4829 61.7006 53.3013 61.7006 58.5982C61.7006 63.8952 59.7774 66.4483 58.0864 68.844C56.8844 70.535 55.8565 71.994 55.3674 74.3067C55.1436 75.3761 54.1737 76.0392 53.1873 75.7988C52.2008 75.5584 51.5874 74.5057 51.8112 73.4363C52.4661 70.2698 53.9168 68.2306 55.1933 66.4318C56.7269 64.2682 58.0532 62.4031 58.0532 58.6065C58.0532 54.6193 56.6937 52.6464 55.127 50.3585C53.4028 47.8468 51.4465 44.9952 51.4465 39.6071C51.4465 34.2189 53.4857 31.3342 55.2762 28.8723C56.8927 26.659 58.2853 24.7441 58.2853 20.732C58.2853 16.7199 56.9258 14.9708 55.3591 12.7824C54.0328 10.9339 52.5241 8.83665 51.8859 5.53745C51.6703 4.46811 52.3086 3.42364 53.2951 3.19153C54.2815 2.95943 55.2514 3.64745 55.4586 4.71679C55.9311 7.12902 57.0004 8.62112 58.2439 10.3536C59.9764 12.7658 61.941 15.5097 61.941 20.732L61.9327 20.7237Z" fill="#006F60"></path><path d="M92.6035 20.7236C92.6035 26.1117 90.5892 28.8804 88.8069 31.3175C87.1739 33.5557 85.7647 35.4871 85.7647 39.5987C85.7647 43.7102 87.1325 45.6748 88.7241 47.9876C90.4317 50.4827 92.3714 53.3011 92.3714 58.5981C92.3714 63.8951 90.4483 66.4482 88.7572 68.8438C87.5552 70.5349 86.5273 71.9939 86.0383 74.3066C85.8145 75.3759 84.8446 76.0391 83.8581 75.7987C82.8717 75.5583 82.2583 74.5055 82.4821 73.4362C83.137 70.2696 84.5876 68.2304 85.8642 66.4316C87.3977 64.2681 88.724 62.4029 88.724 58.6064C88.7241 54.6192 87.3646 52.6463 85.7979 50.3584C84.0737 47.8467 82.1174 44.9951 82.1174 39.607C82.1174 34.2188 84.1566 31.3341 85.9471 28.8721C87.5635 26.6588 88.9562 24.744 88.9562 20.7319C88.9562 16.7198 87.5967 14.9707 86.03 12.7823C84.7037 10.9337 83.195 8.83651 82.5567 5.53731C82.3412 4.46797 82.9795 3.4235 83.9659 3.19139C84.9524 2.96758 85.9222 3.64731 86.1295 4.71665C86.602 7.12888 87.6713 8.62099 88.9147 10.3535C90.6389 12.7574 92.6035 15.4929 92.6035 20.7236Z" fill="#006F60"></path><path d="M127.428 327.285C127.428 321.897 125.414 319.128 123.632 316.691C121.999 314.453 120.59 312.521 120.59 308.41C120.59 304.298 121.957 302.334 123.549 300.021C125.257 297.526 127.196 294.707 127.196 289.41C127.196 284.113 125.273 281.56 123.582 279.165C121.974 276.902 120.59 274.945 120.59 270.776C120.59 269.682 119.769 268.795 118.766 268.795C117.763 268.795 116.942 269.682 116.942 270.776C116.942 276.297 118.932 279.098 120.689 281.577C122.223 283.74 123.549 285.606 123.549 289.402C123.549 293.389 122.19 295.362 120.623 297.65C118.899 300.162 116.942 303.013 116.942 308.402C116.942 313.79 118.981 316.674 120.772 319.136C122.388 321.35 123.781 323.265 123.781 327.277C123.781 331.289 122.422 333.038 120.855 335.226C119.073 337.705 117.058 340.523 117.058 346.027C117.058 347.122 117.879 348.009 118.882 348.009C119.885 348.009 120.706 347.122 120.706 346.027C120.706 341.874 122.107 339.918 123.731 337.655C125.464 335.243 127.428 332.499 127.428 327.277L127.428 327.285Z" fill="#006F60"></path><path d="M112.093 327.285C112.093 321.897 110.079 319.128 108.296 316.691C106.663 314.453 105.254 312.521 105.254 308.41C105.254 304.298 106.622 302.334 108.213 300.021C109.921 297.526 111.861 294.707 111.861 289.41C111.861 284.113 109.938 281.56 108.247 279.165C107.045 277.474 106.017 276.015 105.528 273.702C105.304 272.632 104.334 271.969 103.348 272.21C102.361 272.45 101.748 273.503 101.972 274.572C102.626 277.739 104.077 279.778 105.354 281.577C106.887 283.74 108.213 285.605 108.213 289.402C108.213 293.389 106.854 295.362 105.287 297.65C103.563 300.162 101.607 303.013 101.607 308.401C101.607 313.79 103.646 316.674 105.437 319.136C107.053 321.35 108.446 323.264 108.446 327.277C108.446 331.289 107.086 333.038 105.519 335.226C104.193 337.075 102.684 339.172 102.046 342.471C101.831 343.54 102.469 344.585 103.455 344.817C104.442 345.049 105.412 344.361 105.619 343.292C106.091 340.88 107.161 339.387 108.404 337.655C110.137 335.243 112.101 332.499 112.101 327.277L112.093 327.285Z" fill="#006F60"></path><path d="M142.764 327.285C142.764 321.897 140.749 319.128 138.967 316.691C137.334 314.453 135.925 312.521 135.925 308.41C135.925 304.298 137.293 302.334 138.884 300.021C140.592 297.526 142.532 294.707 142.532 289.41C142.532 284.114 140.609 281.56 138.917 279.165C137.716 277.474 136.688 276.015 136.199 273.702C135.975 272.633 135.005 271.969 134.018 272.21C133.032 272.45 132.419 273.503 132.642 274.572C133.297 277.739 134.748 279.778 136.024 281.577C137.558 283.74 138.884 285.606 138.884 289.402C138.884 293.389 137.525 295.362 135.958 297.65C134.234 300.162 132.278 303.013 132.278 308.402C132.278 313.79 134.317 316.674 136.107 319.136C137.724 321.35 139.116 323.265 139.116 327.277C139.116 331.289 137.757 333.038 136.19 335.226C134.864 337.075 133.355 339.172 132.717 342.471C132.501 343.541 133.14 344.585 134.126 344.817C135.113 345.041 136.082 344.361 136.29 343.292C136.762 340.88 137.832 339.388 139.075 337.655C140.799 335.251 142.764 332.516 142.764 327.285Z" fill="#006F60"></path><path d="M127.428 148.508C127.428 143.12 125.414 140.352 123.632 137.915C121.999 135.676 120.59 133.745 120.59 129.633C120.59 125.522 121.957 123.557 123.549 121.244C125.257 118.749 127.196 115.931 127.196 110.634C127.196 105.337 125.273 102.784 123.582 100.388C121.974 98.1252 120.59 96.1688 120.59 91.9992C120.59 90.905 119.769 90.0181 118.766 90.0181C117.763 90.0181 116.942 90.905 116.942 91.9992C116.942 97.52 118.932 100.322 120.689 102.8C122.223 104.964 123.549 106.829 123.549 110.626C123.549 114.613 122.19 116.586 120.623 118.874C118.899 121.385 116.942 124.237 116.942 129.625C116.942 135.013 118.981 137.898 120.772 140.36C122.388 142.573 123.781 144.488 123.781 148.5C123.781 152.512 122.422 154.261 120.855 156.45C119.073 158.928 117.058 161.747 117.058 167.251C117.058 168.345 117.879 169.232 118.882 169.232C119.885 169.232 120.706 168.345 120.706 167.251C120.706 163.098 122.107 161.142 123.731 158.879C125.464 156.466 127.428 153.722 127.428 148.5L127.428 148.508Z" fill="#006F60"></path><path d="M112.093 148.508C112.093 143.12 110.079 140.352 108.296 137.914C106.663 135.676 105.254 133.745 105.254 129.633C105.254 125.522 106.622 123.557 108.213 121.244C109.921 118.749 111.861 115.931 111.861 110.634C111.861 105.337 109.938 102.784 108.247 100.388C107.045 98.697 106.017 97.2381 105.528 94.9253C105.304 93.856 104.334 93.1928 103.348 93.4332C102.361 93.6736 101.748 94.7264 101.972 95.7957C102.626 98.9623 104.077 101.001 105.354 102.8C106.887 104.964 108.213 106.829 108.213 110.626C108.213 114.613 106.854 116.586 105.287 118.874C103.563 121.385 101.607 124.237 101.607 129.625C101.607 135.013 103.646 137.898 105.437 140.36C107.053 142.573 108.446 144.488 108.446 148.5C108.446 152.512 107.086 154.261 105.519 156.45C104.193 158.298 102.684 160.395 102.046 163.695C101.831 164.764 102.469 165.808 103.455 166.041C104.442 166.273 105.412 165.585 105.619 164.515C106.091 162.103 107.161 160.611 108.404 158.878C110.137 156.466 112.101 153.722 112.101 148.5L112.093 148.508Z" fill="#006F60"></path><path d="M142.764 148.508C142.764 143.12 140.749 140.352 138.967 137.915C137.334 135.676 135.925 133.745 135.925 129.633C135.925 125.522 137.293 123.557 138.884 121.244C140.592 118.749 142.532 115.931 142.532 110.634C142.532 105.337 140.609 102.784 138.917 100.388C137.716 98.6972 136.688 97.2382 136.199 94.9255C135.975 93.8561 135.005 93.193 134.018 93.4334C133.032 93.6738 132.419 94.7265 132.642 95.7959C133.297 98.9624 134.748 101.002 136.024 102.8C137.558 104.964 138.884 106.829 138.884 110.626C138.884 114.613 137.525 116.586 135.958 118.874C134.234 121.385 132.278 124.237 132.278 129.625C132.278 135.013 134.317 137.898 136.107 140.36C137.724 142.573 139.116 144.488 139.116 148.5C139.116 152.512 137.757 154.261 136.19 156.45C134.864 158.298 133.355 160.396 132.717 163.695C132.501 164.764 133.14 165.809 134.126 166.041C135.113 166.264 136.082 165.585 136.29 164.515C136.762 162.103 137.832 160.611 139.075 158.879C140.799 156.475 142.764 153.739 142.764 148.508Z" fill="#006F60"></path><path d="M25.8217 327.285C25.8217 321.897 23.8074 319.128 22.0252 316.691C20.3922 314.453 18.983 312.521 18.983 308.41C18.983 304.298 20.3507 302.334 21.9423 300.021C23.6499 297.526 25.5896 294.707 25.5896 289.41C25.5896 284.113 23.6665 281.56 21.9754 279.165C20.3673 276.902 18.983 274.945 18.983 270.776C18.983 269.682 18.1623 268.795 17.1593 268.795C16.1562 268.795 15.3356 269.682 15.3356 270.776C15.3356 276.297 17.3251 279.098 19.0824 281.577C20.616 283.74 21.9423 285.606 21.9423 289.402C21.9423 293.389 20.5828 295.362 19.0161 297.65C17.2919 300.162 15.3356 303.013 15.3356 308.402C15.3356 313.79 17.3748 316.674 19.1653 319.136C20.7818 321.35 22.1744 323.265 22.1744 327.277C22.1744 331.289 20.8149 333.038 19.2482 335.226C17.466 337.705 15.4516 340.523 15.4516 346.027C15.4516 347.122 16.2723 348.009 17.2753 348.009C18.2783 348.009 19.099 347.122 19.099 346.027C19.099 341.874 20.4999 339.918 22.1246 337.655C23.8571 335.243 25.8217 332.499 25.8217 327.277L25.8217 327.285Z" fill="#006F60"></path><path d="M10.4863 327.285C10.4863 321.897 8.47192 319.128 6.68968 316.691C5.05666 314.453 3.64746 312.521 3.64746 308.41C3.64746 304.298 5.01522 302.334 6.60679 300.021C8.31442 297.526 10.2542 294.707 10.2542 289.41C10.2542 284.113 8.331 281.56 6.63995 279.165C5.43798 277.474 4.41009 276.015 3.92101 273.702C3.6972 272.632 2.72733 271.969 1.74089 272.21C0.75444 272.45 0.141022 273.503 0.364837 274.572C1.0197 277.739 2.47036 279.778 3.74693 281.577C5.28048 283.74 6.6068 285.605 6.6068 289.402C6.6068 293.389 5.24732 295.362 3.68062 297.65C1.95641 300.162 9.76864e-05 303.013 9.74509e-05 308.401C9.72153e-05 313.79 2.0393 316.674 3.82983 319.136C5.44627 321.35 6.8389 323.264 6.8389 327.277C6.83889 331.289 5.47942 333.038 3.91272 335.226C2.58641 337.075 1.07773 339.172 0.439438 342.471C0.223916 343.54 0.862202 344.585 1.84865 344.817C2.83509 345.049 3.80496 344.361 4.01219 343.292C4.48469 340.88 5.55403 339.387 6.79745 337.655C8.52994 335.243 10.4945 332.499 10.4945 327.277L10.4863 327.285Z" fill="#006F60"></path><path d="M41.1571 327.285C41.1571 321.897 39.1428 319.128 37.3605 316.691C35.7275 314.453 34.3183 312.521 34.3183 308.41C34.3183 304.298 35.6861 302.334 37.2776 300.021C38.9853 297.526 40.925 294.707 40.925 289.41C40.925 284.114 39.0018 281.56 37.3108 279.165C36.1088 277.474 35.0809 276.015 34.5919 273.702C34.368 272.633 33.3982 271.969 32.4117 272.21C31.4253 272.45 30.8119 273.503 31.0357 274.572C31.6906 277.739 33.1412 279.778 34.4178 281.577C35.9513 283.74 37.2776 285.606 37.2776 289.402C37.2776 293.389 35.9182 295.362 34.3515 297.65C32.6273 300.162 30.6709 303.013 30.6709 308.402C30.6709 313.79 32.7102 316.674 34.5007 319.136C36.1171 321.35 37.5097 323.265 37.5097 327.277C37.5097 331.289 36.1503 333.038 34.5836 335.226C33.2573 337.075 31.7486 339.172 31.1103 342.471C30.8948 343.541 31.533 344.585 32.5195 344.817C33.5059 345.041 34.4758 344.361 34.683 343.292C35.1555 340.88 36.2249 339.388 37.4683 337.655C39.1925 335.251 41.1571 332.516 41.1571 327.285Z" fill="#006F60"></path><path d="M25.8217 148.508C25.8217 143.12 23.8074 140.352 22.0252 137.915C20.3922 135.676 18.983 133.745 18.983 129.633C18.983 125.522 20.3507 123.557 21.9423 121.244C23.6499 118.749 25.5896 115.931 25.5896 110.634C25.5896 105.337 23.6665 102.784 21.9754 100.388C20.3673 98.1252 18.983 96.1688 18.983 91.9992C18.983 90.905 18.1623 90.0181 17.1593 90.0181C16.1562 90.0181 15.3356 90.905 15.3356 91.9992C15.3356 97.52 17.3251 100.322 19.0824 102.8C20.616 104.964 21.9423 106.829 21.9423 110.626C21.9423 114.613 20.5828 116.586 19.0161 118.874C17.2919 121.385 15.3356 124.237 15.3356 129.625C15.3356 135.013 17.3748 137.898 19.1653 140.36C20.7818 142.573 22.1744 144.488 22.1744 148.5C22.1744 152.512 20.8149 154.261 19.2482 156.45C17.466 158.928 15.4516 161.747 15.4516 167.251C15.4516 168.345 16.2723 169.232 17.2753 169.232C18.2783 169.232 19.099 168.345 19.099 167.251C19.099 163.098 20.4999 161.142 22.1246 158.879C23.8571 156.466 25.8217 153.722 25.8217 148.5L25.8217 148.508Z" fill="#006F60"></path><path d="M10.4863 148.508C10.4863 143.12 8.47192 140.352 6.68968 137.914C5.05666 135.676 3.64746 133.745 3.64746 129.633C3.64746 125.522 5.01522 123.557 6.60679 121.244C8.31442 118.749 10.2542 115.931 10.2542 110.634C10.2542 105.337 8.331 102.784 6.63995 100.388C5.43798 98.697 4.41009 97.2381 3.92101 94.9253C3.6972 93.856 2.72733 93.1928 1.74089 93.4332C0.75444 93.6736 0.141022 94.7264 0.364837 95.7957C1.0197 98.9623 2.47036 101.001 3.74693 102.8C5.28048 104.964 6.6068 106.829 6.6068 110.626C6.6068 114.613 5.24732 116.586 3.68062 118.874C1.95641 121.385 9.76864e-05 124.237 9.74509e-05 129.625C9.72153e-05 135.013 2.0393 137.898 3.82983 140.36C5.44627 142.573 6.8389 144.488 6.8389 148.5C6.83889 152.512 5.47942 154.261 3.91272 156.45C2.58641 158.298 1.07773 160.395 0.439438 163.695C0.223916 164.764 0.862202 165.808 1.84865 166.041C2.83509 166.273 3.80496 165.585 4.01219 164.515C4.48469 162.103 5.55403 160.611 6.79745 158.878C8.52994 156.466 10.4945 153.722 10.4945 148.5L10.4863 148.508Z" fill="#006F60"></path><path d="M41.1571 148.508C41.1571 143.12 39.1428 140.352 37.3605 137.915C35.7275 135.676 34.3183 133.745 34.3183 129.633C34.3183 125.522 35.6861 123.557 37.2776 121.244C38.9853 118.749 40.925 115.931 40.925 110.634C40.925 105.337 39.0018 102.784 37.3108 100.388C36.1088 98.6972 35.0809 97.2382 34.5919 94.9255C34.368 93.8561 33.3982 93.193 32.4117 93.4334C31.4253 93.6738 30.8119 94.7265 31.0357 95.7959C31.6906 98.9624 33.1412 101.002 34.4178 102.8C35.9513 104.964 37.2776 106.829 37.2776 110.626C37.2776 114.613 35.9182 116.586 34.3515 118.874C32.6273 121.385 30.6709 124.237 30.6709 129.625C30.6709 135.013 32.7102 137.898 34.5007 140.36C36.1171 142.573 37.5097 144.488 37.5097 148.5C37.5097 152.512 36.1503 154.261 34.5836 156.45C33.2573 158.298 31.7486 160.396 31.1103 163.695C30.8948 164.764 31.533 165.809 32.5195 166.041C33.5059 166.264 34.4758 165.585 34.683 164.515C35.1555 162.103 36.2249 160.611 37.4683 158.879C39.1925 156.475 41.1571 153.739 41.1571 148.508Z" fill="#006F60"></path><path d="M185.252 347.962C186.138 347.746 186.693 346.852 186.47 345.965C186.246 345.054 186.006 343.753 185.956 342.502C186.039 341.151 186.685 340.008 187.63 339.593C188.582 339.179 189.767 339.56 190.969 340.662C191.375 341.043 191.946 341.184 192.493 341.052C193.032 340.919 193.471 340.521 193.653 339.991C194.068 338.814 194.225 337.704 194.192 336.66C194.374 332.948 192.112 329.965 190.066 327.272C188.234 324.853 186.494 322.549 186.055 319.716C186.039 319.591 186.022 319.467 186.014 319.343C185.981 319.061 185.956 318.771 185.956 318.473C185.956 318.349 185.948 318.216 185.948 318.092C185.948 316.617 186.627 315.324 187.638 314.885C188.591 314.471 189.776 314.852 190.977 315.954C191.383 316.335 191.955 316.476 192.502 316.343C193.04 316.211 193.479 315.813 193.662 315.283C195.426 310.286 192.584 306.533 190.074 303.227C187.953 300.426 185.948 297.783 185.948 294.278C185.948 292.803 186.627 291.511 187.638 291.072C188.591 290.657 189.776 291.039 190.977 292.141C191.383 292.522 191.963 292.663 192.502 292.53C193.04 292.397 193.479 292 193.662 291.469C195.426 286.473 192.584 282.72 190.074 279.414C187.953 276.613 185.948 273.97 185.948 270.465C185.948 269.57 185.202 268.824 184.29 268.824C183.379 268.824 182.633 269.57 182.633 270.482C182.633 275.097 185.185 278.461 187.431 281.427C189.419 284.045 190.795 286.001 190.894 288.139C189.353 287.451 187.762 287.401 186.312 288.039C184.075 289.017 182.633 291.469 182.633 294.287C182.633 298.902 185.185 302.266 187.431 305.232C189.419 307.85 190.795 309.806 190.894 311.944C189.353 311.256 187.762 311.206 186.312 311.844C184.083 312.822 182.633 315.275 182.633 318.092C182.633 318.166 182.633 318.249 182.633 318.324C182.633 318.498 182.633 318.655 182.642 318.829C182.642 318.887 182.625 318.937 182.625 318.995C182.625 320.553 182.923 321.969 183.396 323.279C183.57 323.933 183.71 324.364 183.727 324.414C183.818 324.704 183.992 324.936 184.199 325.126C185.119 326.899 186.304 328.474 187.422 329.949C189.187 332.277 190.472 334.083 190.795 335.956C189.278 335.301 187.721 335.268 186.296 335.89C184.067 336.867 182.617 339.32 182.617 342.137C182.617 342.303 182.617 342.46 182.625 342.626C182.625 342.684 182.617 342.742 182.617 342.808L182.633 342.808C182.708 344.275 182.99 345.725 183.238 346.744C183.454 347.63 184.348 348.177 185.235 347.962L185.252 347.962Z" fill="#006F60"></path><path d="M170.47 347.962C171.356 347.746 171.911 346.852 171.688 345.965C171.464 345.054 171.224 343.753 171.174 342.502C171.257 341.151 171.903 340.008 172.848 339.593C173.801 339.179 174.985 339.56 176.187 340.662C176.593 341.043 177.165 341.184 177.712 341.052C178.25 340.919 178.689 340.521 178.872 339.991C179.286 338.814 179.443 337.704 179.41 336.66C179.592 332.948 177.33 329.965 175.284 327.272C173.453 324.853 171.713 322.549 171.273 319.716C171.257 319.591 171.24 319.467 171.232 319.343C171.199 319.061 171.174 318.771 171.174 318.473C171.174 318.349 171.166 318.216 171.166 318.092C171.166 316.617 171.845 315.324 172.856 314.885C173.809 314.471 174.994 314.852 176.195 315.954C176.601 316.335 177.173 316.476 177.72 316.343C178.258 316.211 178.698 315.813 178.88 315.283C180.645 310.286 177.803 306.533 175.292 303.227C173.171 300.426 171.166 297.783 171.166 294.278C171.166 292.803 171.845 291.511 172.856 291.072C173.809 290.657 174.994 291.039 176.195 292.141C176.601 292.522 177.181 292.663 177.72 292.53C178.258 292.397 178.698 292 178.88 291.469C180.645 286.473 177.803 282.72 175.292 279.414C173.171 276.613 171.166 273.97 171.166 270.465C171.166 269.554 170.42 268.808 169.509 268.808C168.597 268.808 167.851 269.554 167.851 270.465C167.851 275.08 170.403 278.444 172.649 281.411C174.637 284.029 176.013 285.984 176.112 288.122C174.571 287.434 172.98 287.385 171.53 288.023C169.293 289 167.851 291.453 167.851 294.27C167.851 298.885 170.403 302.249 172.649 305.216C174.637 307.834 176.013 309.789 176.112 311.927C174.571 311.239 172.98 311.19 171.53 311.828C169.301 312.805 167.851 315.258 167.851 318.075C167.851 318.15 167.851 318.233 167.851 318.307C167.851 318.481 167.851 318.639 167.86 318.813C167.86 318.871 167.843 318.92 167.843 318.978C167.843 320.536 168.141 321.953 168.614 323.262C168.788 323.917 168.929 324.347 168.945 324.397C169.036 324.687 169.21 324.919 169.417 325.11C170.337 326.883 171.522 328.457 172.641 329.932C174.405 332.26 175.69 334.067 176.013 335.939C174.497 335.285 172.939 335.252 171.514 335.873C169.285 336.851 167.835 339.303 167.835 342.12C167.835 342.286 167.835 342.444 167.843 342.609C167.843 342.667 167.835 342.725 167.835 342.792L167.851 342.792C167.926 344.258 168.208 345.708 168.456 346.727C168.672 347.614 169.567 348.161 170.453 347.945L170.47 347.962Z" fill="#006F60"></path><path d="M155.688 347.962C156.575 347.746 157.13 346.852 156.906 345.965C156.682 345.054 156.442 343.753 156.392 342.502C156.475 341.151 157.121 340.008 158.066 339.593C159.019 339.179 160.204 339.56 161.405 340.662C161.811 341.043 162.383 341.184 162.93 341.052C163.468 340.919 163.907 340.521 164.09 339.991C164.504 338.814 164.661 337.704 164.628 336.66C164.811 332.948 162.549 329.965 160.502 327.272C158.671 324.853 156.931 322.549 156.492 319.716C156.475 319.591 156.459 319.467 156.45 319.343C156.417 319.061 156.392 318.771 156.392 318.473C156.392 318.349 156.384 318.216 156.384 318.092C156.384 316.617 157.063 315.324 158.074 314.885C159.027 314.471 160.212 314.852 161.413 315.954C161.819 316.335 162.391 316.476 162.938 316.343C163.477 316.211 163.916 315.813 164.098 315.283C165.863 310.286 163.021 306.533 160.51 303.227C158.389 300.426 156.384 297.783 156.384 294.278C156.384 292.803 157.063 291.511 158.074 291.072C159.027 290.657 160.212 291.039 161.413 292.141C161.819 292.522 162.399 292.663 162.938 292.53C163.477 292.397 163.916 292 164.098 291.469C165.863 286.473 163.021 282.72 160.51 279.414C158.389 276.613 156.384 273.97 156.384 270.465C156.384 269.57 155.638 268.824 154.727 268.824C153.815 268.824 153.07 269.57 153.07 270.482C153.07 275.097 155.622 278.461 157.867 281.427C159.856 284.045 161.231 286.001 161.331 288.139C159.789 287.451 158.199 287.401 156.749 288.039C154.511 289.017 153.07 291.469 153.07 294.287C153.07 298.902 155.622 302.266 157.867 305.232C159.856 307.85 161.231 309.806 161.331 311.944C159.789 311.256 158.199 311.206 156.749 311.844C154.52 312.822 153.07 315.275 153.07 318.092C153.07 318.166 153.07 318.249 153.07 318.324C153.07 318.498 153.07 318.655 153.078 318.829C153.078 318.887 153.061 318.937 153.061 318.995C153.061 320.553 153.36 321.969 153.832 323.279C154.006 323.933 154.147 324.364 154.163 324.414C154.255 324.704 154.429 324.936 154.636 325.126C155.555 326.899 156.74 328.474 157.859 329.949C159.624 332.277 160.908 334.083 161.231 335.956C159.715 335.301 158.157 335.268 156.732 335.89C154.503 336.867 153.053 339.32 153.053 342.137C153.053 342.303 153.053 342.46 153.061 342.626C153.061 342.684 153.053 342.742 153.053 342.808L153.07 342.808C153.144 344.275 153.426 345.725 153.675 346.744C153.89 347.63 154.785 348.177 155.671 347.962L155.688 347.962Z" fill="#006F60"></path><path d="M185.252 169.185C186.138 168.97 186.693 168.075 186.47 167.188C186.246 166.277 186.006 164.976 185.956 163.725C186.039 162.374 186.685 161.231 187.63 160.817C188.582 160.402 189.767 160.784 190.969 161.886C191.375 162.267 191.946 162.408 192.493 162.275C193.032 162.142 193.471 161.745 193.653 161.214C194.068 160.038 194.225 158.928 194.192 157.884C194.374 154.171 192.112 151.189 190.066 148.496C188.234 146.076 186.494 143.773 186.055 140.939C186.039 140.815 186.022 140.691 186.014 140.566C185.981 140.285 185.956 139.995 185.956 139.696C185.956 139.572 185.948 139.439 185.948 139.315C185.948 137.84 186.627 136.548 187.638 136.108C188.591 135.694 189.776 136.075 190.977 137.177C191.383 137.558 191.955 137.699 192.502 137.567C193.04 137.434 193.479 137.036 193.662 136.506C195.426 131.51 192.584 127.756 190.074 124.45C187.953 121.65 185.948 119.007 185.948 115.502C185.948 114.027 186.627 112.734 187.638 112.295C188.591 111.881 189.776 112.262 190.977 113.364C191.383 113.745 191.963 113.886 192.502 113.753C193.04 113.621 193.479 113.223 193.662 112.693C195.426 107.697 192.584 103.943 190.074 100.637C187.953 97.8365 185.948 95.1933 185.948 91.6884C185.948 90.7936 185.202 90.0478 184.29 90.0478C183.379 90.0478 182.633 90.7936 182.633 91.705C182.633 96.3202 185.185 99.6842 187.431 102.651C189.419 105.269 190.795 107.224 190.894 109.362C189.353 108.674 187.762 108.625 186.312 109.263C184.075 110.24 182.633 112.693 182.633 115.51C182.633 120.125 185.185 123.489 187.431 126.456C189.419 129.074 190.795 131.029 190.894 133.167C189.353 132.479 187.762 132.43 186.312 133.068C184.083 134.045 182.633 136.498 182.633 139.315C182.633 139.39 182.633 139.473 182.633 139.547C182.633 139.721 182.633 139.879 182.642 140.053C182.642 140.111 182.625 140.16 182.625 140.218C182.625 141.776 182.923 143.193 183.396 144.502C183.57 145.157 183.71 145.587 183.727 145.637C183.818 145.927 183.992 146.159 184.199 146.35C185.119 148.123 186.304 149.697 187.422 151.172C189.187 153.5 190.472 155.307 190.795 157.179C189.278 156.525 187.721 156.491 186.296 157.113C184.067 158.091 182.617 160.543 182.617 163.36C182.617 163.526 182.617 163.684 182.625 163.849C182.625 163.907 182.617 163.965 182.617 164.032L182.633 164.032C182.708 165.498 182.99 166.948 183.238 167.967C183.454 168.854 184.348 169.401 185.235 169.185L185.252 169.185Z" fill="#006F60"></path><path d="M170.47 169.185C171.356 168.97 171.911 168.075 171.688 167.188C171.464 166.277 171.224 164.976 171.174 163.725C171.257 162.374 171.903 161.231 172.848 160.817C173.801 160.402 174.985 160.783 176.187 161.886C176.593 162.267 177.165 162.408 177.712 162.275C178.25 162.142 178.689 161.745 178.872 161.214C179.286 160.038 179.443 158.927 179.41 157.883C179.592 154.171 177.33 151.189 175.284 148.496C173.453 146.076 171.713 143.773 171.273 140.939C171.257 140.815 171.24 140.69 171.232 140.566C171.199 140.284 171.174 139.994 171.174 139.696C171.174 139.572 171.166 139.439 171.166 139.315C171.166 137.84 171.845 136.548 172.856 136.108C173.809 135.694 174.994 136.075 176.195 137.177C176.601 137.558 177.173 137.699 177.72 137.567C178.258 137.434 178.698 137.036 178.88 136.506C180.645 131.51 177.803 127.756 175.292 124.45C173.171 121.65 171.166 119.007 171.166 115.502C171.166 114.027 171.845 112.734 172.856 112.295C173.809 111.881 174.994 112.262 176.195 113.364C176.601 113.745 177.181 113.886 177.72 113.753C178.258 113.621 178.698 113.223 178.88 112.693C180.645 107.697 177.803 103.943 175.292 100.637C173.171 97.8365 171.166 95.1933 171.166 91.6884C171.166 90.777 170.42 90.0312 169.509 90.0312C168.597 90.0312 167.851 90.777 167.851 91.6884C167.851 96.3036 170.403 99.6676 172.649 102.634C174.637 105.252 176.013 107.208 176.112 109.345C174.571 108.658 172.98 108.608 171.53 109.246C169.293 110.224 167.851 112.676 167.851 115.493C167.851 120.109 170.403 123.473 172.649 126.439C174.637 129.057 176.013 131.013 176.112 133.15C174.571 132.463 172.98 132.413 171.53 133.051C169.301 134.029 167.851 136.481 167.851 139.298C167.851 139.373 167.851 139.456 167.851 139.53C167.851 139.704 167.851 139.862 167.86 140.036C167.86 140.094 167.843 140.144 167.843 140.202C167.843 141.759 168.141 143.176 168.614 144.485C168.788 145.14 168.929 145.571 168.945 145.621C169.036 145.911 169.21 146.143 169.417 146.333C170.337 148.106 171.522 149.681 172.641 151.155C174.405 153.484 175.69 155.29 176.013 157.163C174.497 156.508 172.939 156.475 171.514 157.096C169.285 158.074 167.835 160.527 167.835 163.344C167.835 163.51 167.835 163.667 167.843 163.833C167.843 163.891 167.835 163.949 167.835 164.015L167.851 164.015C167.926 165.482 168.208 166.932 168.456 167.951C168.672 168.837 169.567 169.384 170.453 169.169L170.47 169.185Z" fill="#006F60"></path><path d="M155.688 169.185C156.575 168.97 157.13 168.075 156.906 167.188C156.682 166.277 156.442 164.976 156.392 163.725C156.475 162.374 157.121 161.231 158.066 160.817C159.019 160.402 160.204 160.784 161.405 161.886C161.811 162.267 162.383 162.408 162.93 162.275C163.468 162.142 163.907 161.745 164.09 161.214C164.504 160.038 164.661 158.928 164.628 157.884C164.811 154.171 162.549 151.189 160.502 148.496C158.671 146.076 156.931 143.773 156.492 140.939C156.475 140.815 156.459 140.691 156.45 140.566C156.417 140.285 156.392 139.995 156.392 139.696C156.392 139.572 156.384 139.439 156.384 139.315C156.384 137.84 157.063 136.548 158.074 136.108C159.027 135.694 160.212 136.075 161.413 137.177C161.819 137.558 162.391 137.699 162.938 137.567C163.477 137.434 163.916 137.036 164.098 136.506C165.863 131.51 163.021 127.756 160.51 124.45C158.389 121.65 156.384 119.007 156.384 115.502C156.384 114.027 157.063 112.734 158.074 112.295C159.027 111.881 160.212 112.262 161.413 113.364C161.819 113.745 162.399 113.886 162.938 113.753C163.477 113.621 163.916 113.223 164.098 112.693C165.863 107.697 163.021 103.943 160.51 100.637C158.389 97.8365 156.384 95.1933 156.384 91.6884C156.384 90.7936 155.638 90.0478 154.727 90.0478C153.815 90.0478 153.07 90.7936 153.07 91.705C153.07 96.3202 155.622 99.6842 157.867 102.651C159.856 105.269 161.231 107.224 161.331 109.362C159.789 108.674 158.199 108.625 156.749 109.263C154.511 110.24 153.07 112.693 153.07 115.51C153.07 120.125 155.622 123.489 157.867 126.456C159.856 129.074 161.231 131.029 161.331 133.167C159.789 132.479 158.199 132.43 156.749 133.068C154.52 134.045 153.07 136.498 153.07 139.315C153.07 139.39 153.07 139.473 153.07 139.547C153.07 139.721 153.07 139.879 153.078 140.053C153.078 140.111 153.061 140.16 153.061 140.218C153.061 141.776 153.36 143.193 153.832 144.502C154.006 145.157 154.147 145.587 154.163 145.637C154.255 145.927 154.429 146.159 154.636 146.35C155.555 148.123 156.74 149.697 157.859 151.172C159.624 153.5 160.908 155.307 161.231 157.179C159.715 156.525 158.157 156.491 156.732 157.113C154.503 158.091 153.053 160.543 153.053 163.36C153.053 163.526 153.053 163.684 153.061 163.849C153.061 163.907 153.053 163.965 153.053 164.032L153.07 164.032C153.144 165.498 153.426 166.948 153.675 167.967C153.89 168.854 154.785 169.401 155.671 169.185L155.688 169.185Z" fill="#006F60"></path><path d="M83.6449 347.962C84.5314 347.746 85.0866 346.852 84.8629 345.965C84.6391 345.054 84.3989 343.753 84.3491 342.502C84.432 341.151 85.0783 340.008 86.0229 339.593C86.9757 339.179 88.1606 339.56 89.362 340.662C89.768 341.043 90.3398 341.184 90.8866 341.052C91.4252 340.919 91.8643 340.521 92.0466 339.991C92.4609 338.814 92.6184 337.704 92.5852 336.66C92.7675 332.948 90.5055 329.965 88.4589 327.272C86.6277 324.853 84.8877 322.549 84.4486 319.716C84.432 319.591 84.4154 319.467 84.4071 319.343C84.374 319.061 84.3491 318.771 84.3491 318.473C84.3491 318.349 84.3409 318.216 84.3409 318.092C84.3409 316.617 85.0203 315.324 86.0312 314.885C86.984 314.471 88.1689 314.852 89.3703 315.954C89.7763 316.335 90.3481 316.476 90.8949 316.343C91.4335 316.211 91.8726 315.813 92.0549 315.283C93.8198 310.286 90.9778 306.533 88.4672 303.227C86.346 300.426 84.3409 297.783 84.3409 294.278C84.3409 292.803 85.0203 291.511 86.0312 291.072C86.984 290.657 88.1689 291.039 89.3703 292.141C89.7763 292.522 90.3563 292.663 90.8949 292.53C91.4335 292.397 91.8726 292 92.0549 291.469C93.8198 286.473 90.9778 282.72 88.4672 279.414C86.346 276.613 84.3409 273.97 84.3409 270.465C84.3409 269.57 83.5951 268.824 82.6837 268.824C81.7723 268.824 81.0266 269.57 81.0266 270.482C81.0266 275.097 83.5786 278.461 85.824 281.427C87.8126 284.045 89.188 286.001 89.2875 288.139C87.7463 287.451 86.1555 287.401 84.7054 288.039C82.4683 289.017 81.0266 291.469 81.0266 294.287C81.0266 298.902 83.5786 302.266 85.824 305.232C87.8126 307.85 89.188 309.806 89.2875 311.944C87.7463 311.256 86.1554 311.206 84.7054 311.844C82.4766 312.822 81.0266 315.275 81.0266 318.092C81.0266 318.166 81.0266 318.249 81.0266 318.324C81.0266 318.498 81.0266 318.655 81.0348 318.829C81.0348 318.887 81.0183 318.937 81.0183 318.995C81.0183 320.553 81.3166 321.969 81.7888 323.279C81.9628 323.933 82.1037 324.364 82.1203 324.414C82.2114 324.704 82.3854 324.936 82.5926 325.126C83.5123 326.899 84.6972 328.474 85.8157 329.949C87.5806 332.277 88.8649 334.083 89.188 335.956C87.6717 335.301 86.114 335.268 84.6889 335.89C82.46 336.867 81.01 339.32 81.01 342.137C81.01 342.303 81.01 342.46 81.0183 342.626C81.0183 342.684 81.01 342.742 81.01 342.808L81.0265 342.808C81.1011 344.275 81.3828 345.725 81.6314 346.744C81.8468 347.63 82.7417 348.177 83.6283 347.962L83.6449 347.962Z" fill="#006F60"></path><path d="M68.8631 347.962C69.7496 347.746 70.3048 346.852 70.0811 345.965C69.8573 345.054 69.6171 343.753 69.5673 342.502C69.6502 341.151 70.2965 340.008 71.2411 339.593C72.1939 339.179 73.3788 339.56 74.5802 340.662C74.9862 341.043 75.558 341.184 76.1048 341.052C76.6434 340.919 77.0825 340.521 77.2648 339.991C77.6791 338.814 77.8366 337.704 77.8034 336.66C77.9857 332.948 75.7237 329.965 73.6771 327.272C71.8459 324.853 70.1059 322.549 69.6668 319.716C69.6502 319.591 69.6336 319.467 69.6253 319.343C69.5922 319.061 69.5673 318.771 69.5673 318.473C69.5673 318.349 69.5591 318.216 69.5591 318.092C69.5591 316.617 70.2385 315.324 71.2494 314.885C72.2022 314.471 73.3871 314.852 74.5885 315.954C74.9945 316.335 75.5663 316.476 76.1131 316.343C76.6517 316.211 77.0908 315.813 77.2731 315.283C79.038 310.286 76.196 306.533 73.6854 303.227C71.5642 300.426 69.5591 297.783 69.5591 294.278C69.5591 292.803 70.2385 291.511 71.2494 291.072C72.2022 290.657 73.3871 291.039 74.5885 292.141C74.9945 292.522 75.5745 292.663 76.1131 292.53C76.6517 292.397 77.0908 292 77.2731 291.469C79.038 286.473 76.196 282.72 73.6854 279.414C71.5642 276.613 69.5591 273.97 69.5591 270.465C69.5591 269.554 68.8133 268.808 67.9019 268.808C66.9905 268.808 66.2448 269.554 66.2448 270.465C66.2448 275.08 68.7968 278.444 71.0422 281.411C73.0308 284.029 74.4062 285.984 74.5057 288.122C72.9645 287.434 71.3736 287.385 69.9236 288.023C67.6865 289 66.2448 291.453 66.2448 294.27C66.2448 298.885 68.7968 302.249 71.0422 305.216C73.0308 307.834 74.4062 309.789 74.5057 311.927C72.9645 311.239 71.3736 311.19 69.9236 311.828C67.6948 312.805 66.2448 315.258 66.2448 318.075C66.2448 318.15 66.2448 318.233 66.2448 318.307C66.2448 318.481 66.2448 318.639 66.253 318.813C66.253 318.871 66.2365 318.92 66.2365 318.978C66.2365 320.536 66.5348 321.953 67.007 323.262C67.181 323.917 67.3219 324.347 67.3385 324.397C67.4296 324.687 67.6036 324.919 67.8108 325.11C68.7305 326.883 69.9153 328.457 71.0339 329.932C72.7988 332.26 74.0831 334.067 74.4062 335.939C72.8899 335.285 71.3322 335.252 69.9071 335.873C67.6782 336.851 66.2282 339.303 66.2282 342.12C66.2282 342.286 66.2282 342.444 66.2365 342.609C66.2365 342.667 66.2282 342.725 66.2282 342.792L66.2447 342.792C66.3193 344.258 66.601 345.708 66.8496 346.727C67.065 347.614 67.9599 348.161 68.8465 347.945L68.8631 347.962Z" fill="#006F60"></path><path d="M54.0813 347.962C54.9678 347.746 55.523 346.852 55.2993 345.965C55.0756 345.054 54.8353 343.753 54.7855 342.502C54.8684 341.151 55.5147 340.008 56.4593 339.593C57.4121 339.179 58.597 339.56 59.7984 340.662C60.2044 341.043 60.7762 341.184 61.323 341.052C61.8616 340.919 62.3008 340.521 62.483 339.991C62.8973 338.814 63.0548 337.704 63.0216 336.66C63.2039 332.948 60.9419 329.965 58.8953 327.272C57.0641 324.853 55.3241 322.549 54.885 319.716C54.8684 319.591 54.8518 319.467 54.8435 319.343C54.8104 319.061 54.7856 318.771 54.7856 318.473C54.7856 318.349 54.7773 318.216 54.7773 318.092C54.7773 316.617 55.4567 315.324 56.4676 314.885C57.4204 314.471 58.6053 314.852 59.8067 315.954C60.2127 316.335 60.7845 316.476 61.3313 316.343C61.8699 316.211 62.309 315.813 62.4913 315.283C64.2562 310.286 61.4142 306.533 58.9036 303.227C56.7824 300.426 54.7773 297.783 54.7773 294.278C54.7773 292.803 55.4567 291.511 56.4676 291.072C57.4204 290.657 58.6053 291.039 59.8067 292.141C60.2127 292.522 60.7927 292.663 61.3313 292.53C61.8699 292.397 62.309 292 62.4913 291.469C64.2562 286.473 61.4142 282.72 58.9036 279.414C56.7824 276.613 54.7773 273.97 54.7773 270.465C54.7773 269.57 54.0315 268.824 53.1201 268.824C52.2087 268.824 51.463 269.57 51.463 270.482C51.463 275.097 54.015 278.461 56.2604 281.427C58.249 284.045 59.6244 286.001 59.7239 288.139C58.1827 287.451 56.5919 287.401 55.1418 288.039C52.9047 289.017 51.463 291.469 51.463 294.287C51.463 298.902 54.015 302.266 56.2604 305.232C58.249 307.85 59.6244 309.806 59.7239 311.944C58.1827 311.256 56.5919 311.206 55.1418 311.844C52.913 312.822 51.463 315.275 51.463 318.092C51.463 318.166 51.463 318.249 51.463 318.324C51.463 318.498 51.463 318.655 51.4712 318.829C51.4712 318.887 51.4547 318.937 51.4547 318.995C51.4547 320.553 51.753 321.969 52.2252 323.279C52.3992 323.933 52.5401 324.364 52.5567 324.414C52.6478 324.704 52.8218 324.936 53.029 325.126C53.9487 326.899 55.1336 328.474 56.2521 329.949C58.017 332.277 59.3013 334.083 59.6244 335.956C58.1081 335.301 56.5504 335.268 55.1253 335.89C52.8964 336.867 51.4464 339.32 51.4464 342.137C51.4464 342.303 51.4464 342.46 51.4547 342.626C51.4547 342.684 51.4464 342.742 51.4464 342.808L51.463 342.808C51.5375 344.275 51.8192 345.725 52.0678 346.744C52.2832 347.63 53.1781 348.177 54.0647 347.962L54.0813 347.962Z" fill="#006F60"></path><path d="M83.6449 169.185C84.5314 168.97 85.0866 168.075 84.8629 167.188C84.6391 166.277 84.3989 164.976 84.3491 163.725C84.432 162.374 85.0783 161.231 86.0229 160.817C86.9757 160.402 88.1606 160.784 89.362 161.886C89.768 162.267 90.3398 162.408 90.8866 162.275C91.4252 162.142 91.8643 161.745 92.0466 161.214C92.4609 160.038 92.6184 158.928 92.5852 157.884C92.7675 154.171 90.5055 151.189 88.4589 148.496C86.6277 146.076 84.8877 143.773 84.4486 140.939C84.432 140.815 84.4154 140.691 84.4071 140.566C84.374 140.285 84.3491 139.995 84.3491 139.696C84.3491 139.572 84.3409 139.439 84.3409 139.315C84.3409 137.84 85.0203 136.548 86.0312 136.108C86.984 135.694 88.1689 136.075 89.3703 137.177C89.7763 137.558 90.3481 137.699 90.8949 137.567C91.4335 137.434 91.8726 137.036 92.0549 136.506C93.8198 131.51 90.9778 127.756 88.4672 124.45C86.346 121.65 84.3409 119.007 84.3409 115.502C84.3409 114.027 85.0203 112.734 86.0312 112.295C86.984 111.881 88.1689 112.262 89.3703 113.364C89.7763 113.745 90.3563 113.886 90.8949 113.753C91.4335 113.621 91.8726 113.223 92.0549 112.693C93.8198 107.697 90.9778 103.943 88.4672 100.637C86.346 97.8365 84.3409 95.1933 84.3409 91.6884C84.3409 90.7936 83.5951 90.0478 82.6837 90.0478C81.7723 90.0478 81.0266 90.7936 81.0266 91.705C81.0266 96.3202 83.5786 99.6842 85.824 102.651C87.8126 105.269 89.188 107.224 89.2875 109.362C87.7463 108.674 86.1555 108.625 84.7054 109.263C82.4683 110.24 81.0266 112.693 81.0266 115.51C81.0266 120.125 83.5786 123.489 85.824 126.456C87.8126 129.074 89.188 131.029 89.2875 133.167C87.7463 132.479 86.1554 132.43 84.7054 133.068C82.4766 134.045 81.0266 136.498 81.0266 139.315C81.0266 139.39 81.0266 139.473 81.0266 139.547C81.0266 139.721 81.0266 139.879 81.0348 140.053C81.0348 140.111 81.0183 140.16 81.0183 140.218C81.0183 141.776 81.3166 143.193 81.7888 144.502C81.9628 145.157 82.1037 145.587 82.1203 145.637C82.2114 145.927 82.3854 146.159 82.5926 146.35C83.5123 148.123 84.6972 149.697 85.8157 151.172C87.5806 153.5 88.8649 155.307 89.188 157.179C87.6717 156.525 86.114 156.491 84.6889 157.113C82.46 158.091 81.01 160.543 81.01 163.36C81.01 163.526 81.01 163.684 81.0183 163.849C81.0183 163.907 81.01 163.965 81.01 164.032L81.0265 164.032C81.1011 165.498 81.3828 166.948 81.6314 167.967C81.8468 168.854 82.7417 169.401 83.6283 169.185L83.6449 169.185Z" fill="#006F60"></path><path d="M68.8631 169.185C69.7496 168.97 70.3048 168.075 70.0811 167.188C69.8573 166.277 69.6171 164.976 69.5673 163.725C69.6502 162.374 70.2965 161.231 71.2411 160.817C72.1939 160.402 73.3788 160.783 74.5802 161.886C74.9862 162.267 75.558 162.408 76.1048 162.275C76.6434 162.142 77.0825 161.745 77.2648 161.214C77.6791 160.038 77.8366 158.927 77.8034 157.883C77.9857 154.171 75.7237 151.189 73.6771 148.496C71.8459 146.076 70.1059 143.773 69.6668 140.939C69.6502 140.815 69.6336 140.69 69.6253 140.566C69.5922 140.284 69.5673 139.994 69.5673 139.696C69.5673 139.572 69.5591 139.439 69.5591 139.315C69.5591 137.84 70.2385 136.548 71.2494 136.108C72.2022 135.694 73.3871 136.075 74.5885 137.177C74.9945 137.558 75.5663 137.699 76.1131 137.567C76.6517 137.434 77.0908 137.036 77.2731 136.506C79.038 131.51 76.196 127.756 73.6854 124.45C71.5642 121.65 69.5591 119.007 69.5591 115.502C69.5591 114.027 70.2385 112.734 71.2494 112.295C72.2022 111.881 73.3871 112.262 74.5885 113.364C74.9945 113.745 75.5745 113.886 76.1131 113.753C76.6517 113.621 77.0908 113.223 77.2731 112.693C79.038 107.697 76.196 103.943 73.6854 100.637C71.5642 97.8365 69.5591 95.1933 69.5591 91.6884C69.5591 90.777 68.8133 90.0312 67.9019 90.0312C66.9905 90.0312 66.2448 90.777 66.2448 91.6884C66.2448 96.3036 68.7968 99.6676 71.0422 102.634C73.0308 105.252 74.4062 107.208 74.5057 109.345C72.9645 108.658 71.3736 108.608 69.9236 109.246C67.6865 110.224 66.2448 112.676 66.2448 115.493C66.2448 120.109 68.7968 123.473 71.0422 126.439C73.0308 129.057 74.4062 131.013 74.5057 133.15C72.9645 132.463 71.3736 132.413 69.9236 133.051C67.6948 134.029 66.2448 136.481 66.2448 139.298C66.2448 139.373 66.2448 139.456 66.2448 139.53C66.2448 139.704 66.2448 139.862 66.253 140.036C66.253 140.094 66.2365 140.144 66.2365 140.202C66.2365 141.759 66.5348 143.176 67.007 144.485C67.181 145.14 67.3219 145.571 67.3385 145.621C67.4296 145.911 67.6036 146.143 67.8108 146.333C68.7305 148.106 69.9153 149.681 71.0339 151.155C72.7988 153.484 74.0831 155.29 74.4062 157.163C72.8899 156.508 71.3322 156.475 69.9071 157.096C67.6782 158.074 66.2282 160.527 66.2282 163.344C66.2282 163.51 66.2282 163.667 66.2365 163.833C66.2365 163.891 66.2282 163.949 66.2282 164.015L66.2447 164.015C66.3193 165.482 66.601 166.932 66.8496 167.951C67.065 168.837 67.9599 169.384 68.8465 169.169L68.8631 169.185Z" fill="#006F60"></path><path d="M54.0813 169.185C54.9678 168.97 55.523 168.075 55.2993 167.188C55.0756 166.277 54.8353 164.976 54.7855 163.725C54.8684 162.374 55.5147 161.231 56.4593 160.817C57.4121 160.402 58.597 160.784 59.7984 161.886C60.2044 162.267 60.7762 162.408 61.323 162.275C61.8616 162.142 62.3008 161.745 62.483 161.214C62.8973 160.038 63.0548 158.928 63.0216 157.884C63.2039 154.171 60.9419 151.189 58.8953 148.496C57.0641 146.076 55.3241 143.773 54.885 140.939C54.8684 140.815 54.8518 140.691 54.8435 140.566C54.8104 140.285 54.7856 139.995 54.7856 139.696C54.7856 139.572 54.7773 139.439 54.7773 139.315C54.7773 137.84 55.4567 136.548 56.4676 136.108C57.4204 135.694 58.6053 136.075 59.8067 137.177C60.2127 137.558 60.7845 137.699 61.3313 137.567C61.8699 137.434 62.309 137.036 62.4913 136.506C64.2562 131.51 61.4142 127.756 58.9036 124.45C56.7824 121.65 54.7773 119.007 54.7773 115.502C54.7773 114.027 55.4567 112.734 56.4676 112.295C57.4204 111.881 58.6053 112.262 59.8067 113.364C60.2127 113.745 60.7927 113.886 61.3313 113.753C61.8699 113.621 62.309 113.223 62.4913 112.693C64.2562 107.697 61.4142 103.943 58.9036 100.637C56.7824 97.8365 54.7773 95.1933 54.7773 91.6884C54.7773 90.7936 54.0315 90.0478 53.1201 90.0478C52.2087 90.0478 51.463 90.7936 51.463 91.705C51.463 96.3202 54.015 99.6842 56.2604 102.651C58.249 105.269 59.6244 107.224 59.7239 109.362C58.1827 108.674 56.5919 108.625 55.1418 109.263C52.9047 110.24 51.463 112.693 51.463 115.51C51.463 120.125 54.015 123.489 56.2604 126.456C58.249 129.074 59.6244 131.029 59.7239 133.167C58.1827 132.479 56.5919 132.43 55.1418 133.068C52.913 134.045 51.463 136.498 51.463 139.315C51.463 139.39 51.463 139.473 51.463 139.547C51.463 139.721 51.463 139.879 51.4712 140.053C51.4712 140.111 51.4547 140.16 51.4547 140.218C51.4547 141.776 51.753 143.193 52.2252 144.502C52.3992 145.157 52.5401 145.587 52.5567 145.637C52.6478 145.927 52.8218 146.159 53.029 146.35C53.9487 148.123 55.1336 149.697 56.2521 151.172C58.017 153.5 59.3013 155.307 59.6244 157.179C58.1081 156.525 56.5504 156.491 55.1253 157.113C52.8964 158.091 51.4464 160.543 51.4464 163.36C51.4464 163.526 51.4464 163.684 51.4547 163.849C51.4547 163.907 51.4464 163.965 51.4464 164.032L51.463 164.032C51.5375 165.498 51.8192 166.948 52.0678 167.967C52.2832 168.854 53.1781 169.401 54.0647 169.185L54.0813 169.185Z" fill="#006F60"></path><path d="M133.805 178.823C134.692 179.039 135.247 179.934 135.023 180.82C134.799 181.732 134.559 183.033 134.509 184.284C134.592 185.634 135.239 186.778 136.183 187.192C137.136 187.606 138.321 187.225 139.522 186.123C139.928 185.742 140.5 185.601 141.047 185.734C141.585 185.866 142.025 186.264 142.207 186.794C142.621 187.971 142.779 189.081 142.745 190.125C142.928 193.837 140.666 196.82 138.619 199.513C136.788 201.933 135.048 204.236 134.609 207.07C134.592 207.194 134.576 207.318 134.567 207.443C134.534 207.724 134.509 208.014 134.509 208.313C134.509 208.437 134.501 208.569 134.501 208.694C134.501 210.169 135.181 211.461 136.191 211.9C137.144 212.315 138.329 211.933 139.531 210.831C139.937 210.45 140.508 210.309 141.055 210.442C141.594 210.575 142.033 210.972 142.215 211.503C143.98 216.499 141.138 220.252 138.627 223.558C136.506 226.359 134.501 229.002 134.501 232.507C134.501 233.982 135.181 235.274 136.191 235.714C137.144 236.128 138.329 235.747 139.531 234.645C139.937 234.264 140.517 234.123 141.055 234.255C141.594 234.388 142.033 234.786 142.215 235.316C143.98 240.312 141.138 244.066 138.627 247.372C136.506 250.172 134.501 252.815 134.501 256.32C134.501 257.215 133.755 257.961 132.844 257.961C131.933 257.961 131.187 257.215 131.187 256.304C131.187 251.689 133.739 248.325 135.984 245.358C137.973 242.74 139.348 240.785 139.448 238.647C137.907 239.335 136.316 239.384 134.866 238.746C132.629 237.769 131.187 235.316 131.187 232.499C131.187 227.884 133.739 224.52 135.984 221.553C137.973 218.935 139.348 216.979 139.448 214.842C137.907 215.529 136.316 215.579 134.866 214.941C132.637 213.963 131.187 211.511 131.187 208.694C131.187 208.619 131.187 208.536 131.187 208.462C131.187 208.288 131.187 208.13 131.195 207.956C131.195 207.898 131.179 207.849 131.179 207.791C131.179 206.233 131.477 204.816 131.949 203.507C132.123 202.852 132.264 202.421 132.281 202.372C132.372 202.082 132.546 201.85 132.753 201.659C133.673 199.886 134.857 198.312 135.976 196.837C137.741 194.508 139.025 192.702 139.348 190.83C137.832 191.484 136.274 191.517 134.849 190.896C132.62 189.918 131.17 187.466 131.17 184.648C131.17 184.483 131.17 184.325 131.179 184.16C131.179 184.102 131.17 184.044 131.17 183.977L131.187 183.977C131.261 182.511 131.543 181.061 131.792 180.041C132.007 179.155 132.902 178.608 133.789 178.823L133.805 178.823Z" fill="#006F60"></path><path d="M119.023 178.824C119.91 179.039 120.465 179.934 120.241 180.82C120.018 181.732 119.777 183.033 119.728 184.284C119.81 185.634 120.457 186.778 121.401 187.192C122.354 187.606 123.539 187.225 124.741 186.123C125.147 185.742 125.718 185.601 126.265 185.734C126.804 185.866 127.243 186.264 127.425 186.794C127.839 187.971 127.997 189.081 127.964 190.125C128.146 193.837 125.884 196.82 123.837 199.513C122.006 201.933 120.266 204.236 119.827 207.07C119.81 207.194 119.794 207.318 119.786 207.443C119.752 207.724 119.728 208.014 119.728 208.313C119.728 208.437 119.719 208.569 119.719 208.694C119.719 210.169 120.399 211.461 121.41 211.9C122.363 212.315 123.547 211.933 124.749 210.831C125.155 210.45 125.727 210.309 126.273 210.442C126.812 210.575 127.251 210.972 127.433 211.503C129.198 216.499 126.356 220.252 123.846 223.558C121.725 226.359 119.719 229.002 119.719 232.507C119.719 233.982 120.399 235.275 121.41 235.714C122.363 236.128 123.547 235.747 124.749 234.645C125.155 234.264 125.735 234.123 126.273 234.255C126.812 234.388 127.251 234.786 127.433 235.316C129.198 240.312 126.356 244.066 123.846 247.372C121.725 250.172 119.719 252.815 119.719 256.32C119.719 257.232 118.974 257.978 118.062 257.978C117.151 257.978 116.405 257.232 116.405 256.32C116.405 251.705 118.957 248.341 121.202 245.375C123.191 242.757 124.567 240.801 124.666 238.663C123.125 239.351 121.534 239.401 120.084 238.763C117.847 237.785 116.405 235.333 116.405 232.515C116.405 227.9 118.957 224.536 121.202 221.57C123.191 218.952 124.567 216.996 124.666 214.858C123.125 215.546 121.534 215.596 120.084 214.958C117.855 213.98 116.405 211.527 116.405 208.71C116.405 208.636 116.405 208.553 116.405 208.478C116.405 208.304 116.405 208.147 116.413 207.973C116.413 207.915 116.397 207.865 116.397 207.807C116.397 206.249 116.695 204.833 117.167 203.523C117.341 202.869 117.482 202.438 117.499 202.388C117.59 202.098 117.764 201.866 117.971 201.676C118.891 199.903 120.076 198.328 121.194 196.853C122.959 194.525 124.243 192.719 124.567 190.846C123.05 191.501 121.493 191.534 120.067 190.912C117.838 189.935 116.388 187.482 116.388 184.665C116.388 184.499 116.388 184.342 116.397 184.176C116.397 184.118 116.388 184.06 116.388 183.994L116.405 183.994C116.48 182.527 116.761 181.077 117.01 180.058C117.225 179.172 118.12 178.625 119.007 178.84L119.023 178.824Z" fill="#006F60"></path><path d="M104.242 178.823C105.128 179.039 105.683 179.934 105.46 180.82C105.236 181.732 104.996 183.033 104.946 184.284C105.029 185.634 105.675 186.778 106.62 187.192C107.572 187.606 108.757 187.225 109.959 186.123C110.365 185.742 110.936 185.601 111.483 185.734C112.022 185.866 112.461 186.264 112.643 186.794C113.058 187.971 113.215 189.081 113.182 190.125C113.364 193.837 111.102 196.82 109.056 199.513C107.224 201.933 105.484 204.236 105.045 207.07C105.029 207.194 105.012 207.318 105.004 207.443C104.971 207.724 104.946 208.014 104.946 208.313C104.946 208.437 104.938 208.569 104.938 208.694C104.938 210.169 105.617 211.461 106.628 211.9C107.581 212.315 108.766 211.933 109.967 210.831C110.373 210.45 110.945 210.309 111.492 210.442C112.03 210.575 112.469 210.972 112.652 211.503C114.416 216.499 111.574 220.252 109.064 223.558C106.943 226.359 104.938 229.002 104.938 232.507C104.938 233.982 105.617 235.274 106.628 235.714C107.581 236.128 108.766 235.747 109.967 234.645C110.373 234.264 110.953 234.123 111.492 234.255C112.03 234.388 112.469 234.786 112.652 235.316C114.416 240.312 111.574 244.066 109.064 247.372C106.943 250.172 104.938 252.815 104.938 256.32C104.938 257.215 104.192 257.961 103.28 257.961C102.369 257.961 101.623 257.215 101.623 256.304C101.623 251.689 104.175 248.325 106.421 245.358C108.409 242.74 109.785 240.785 109.884 238.647C108.343 239.335 106.752 239.384 105.302 238.746C103.065 237.769 101.623 235.316 101.623 232.499C101.623 227.884 104.175 224.52 106.421 221.553C108.409 218.935 109.785 216.979 109.884 214.842C108.343 215.529 106.752 215.579 105.302 214.941C103.073 213.963 101.623 211.511 101.623 208.694C101.623 208.619 101.623 208.536 101.623 208.462C101.623 208.288 101.623 208.13 101.632 207.956C101.632 207.898 101.615 207.849 101.615 207.791C101.615 206.233 101.913 204.816 102.386 203.507C102.56 202.852 102.7 202.421 102.717 202.372C102.808 202.082 102.982 201.85 103.189 201.659C104.109 199.886 105.294 198.312 106.412 196.837C108.177 194.508 109.462 192.702 109.785 190.83C108.268 191.484 106.711 191.517 105.286 190.896C103.057 189.918 101.607 187.466 101.607 184.648C101.607 184.483 101.607 184.325 101.615 184.16C101.615 184.102 101.607 184.044 101.607 183.977L101.623 183.977C101.698 182.511 101.98 181.061 102.228 180.041C102.444 179.155 103.338 178.608 104.225 178.823L104.242 178.823Z" fill="#006F60"></path><path d="M133.805 0.046867C134.692 0.262298 135.247 1.15717 135.023 2.04375C134.799 2.95518 134.559 4.25605 134.509 5.5072C134.592 6.85778 135.239 8.00121 136.183 8.4155C137.136 8.8298 138.321 8.44865 139.522 7.34665C139.928 6.9655 140.5 6.82464 141.047 6.95721C141.585 7.08978 142.025 7.4875 142.207 8.01779C142.621 9.19437 142.779 10.3047 142.745 11.3487C142.928 15.0607 140.666 18.0436 138.619 20.7365C136.788 23.1559 135.048 25.4594 134.609 28.2931C134.592 28.4174 134.576 28.5417 134.567 28.666C134.534 28.9477 134.509 29.2377 134.509 29.536C134.509 29.6602 134.501 29.7928 134.501 29.9171C134.501 31.392 135.181 32.6846 136.191 33.1237C137.144 33.538 138.329 33.1568 139.531 32.0548C139.937 31.6737 140.508 31.5328 141.055 31.6654C141.594 31.798 142.033 32.1957 142.215 32.726C143.98 37.7223 141.138 41.4758 138.627 44.7818C136.506 47.5824 134.501 50.2255 134.501 53.7304C134.501 55.2053 135.181 56.4979 136.191 56.937C137.144 57.3513 138.329 56.9702 139.531 55.8682C139.937 55.487 140.517 55.3462 141.055 55.4787C141.594 55.6113 142.033 56.009 142.215 56.5393C143.98 61.5356 141.138 65.2891 138.627 68.5951C136.506 71.3957 134.501 74.0389 134.501 77.5438C134.501 78.4386 133.755 79.1843 132.844 79.1843C131.933 79.1843 131.187 78.4386 131.187 77.5272C131.187 72.912 133.739 69.548 135.984 66.5817C137.973 63.9634 139.348 62.0079 139.448 59.8702C137.907 60.5579 136.316 60.6076 134.866 59.9696C132.629 58.9919 131.187 56.5393 131.187 53.7221C131.187 49.107 133.739 45.7429 135.984 42.7766C137.973 40.1583 139.348 38.2029 139.448 36.0652C137.907 36.7529 136.316 36.8026 134.866 36.1646C132.637 35.1869 131.187 32.7343 131.187 29.9171C131.187 29.8425 131.187 29.7597 131.187 29.6851C131.187 29.5111 131.187 29.3537 131.195 29.1797C131.195 29.1217 131.179 29.072 131.179 29.014C131.179 27.4562 131.477 26.0394 131.949 24.7302C132.123 24.0756 132.264 23.6448 132.281 23.5951C132.372 23.3051 132.546 23.0731 132.753 22.8825C133.673 21.1093 134.857 19.535 135.976 18.0602C137.741 15.7319 139.025 13.9256 139.348 12.053C137.832 12.7075 136.274 12.7407 134.849 12.1192C132.62 11.1415 131.17 8.68893 131.17 5.87177C131.17 5.70605 131.17 5.54863 131.179 5.38291C131.179 5.32491 131.17 5.26691 131.17 5.20062L131.187 5.20062C131.261 3.73405 131.543 2.28403 131.792 1.26488C132.007 0.378303 132.902 -0.168557 133.789 0.046867L133.805 0.046867Z" fill="#006F60"></path><path d="M119.023 0.0468892C119.91 0.26232 120.465 1.15719 120.241 2.04376C120.018 2.9552 119.777 4.25606 119.728 5.50722C119.81 6.8578 120.457 8.00123 121.401 8.41553C122.354 8.82981 123.539 8.44868 124.741 7.34666C125.147 6.96552 125.718 6.82466 126.265 6.95723C126.804 7.0898 127.243 7.48752 127.425 8.01781C127.839 9.19439 127.997 10.3047 127.964 11.3487C128.146 15.0607 125.884 18.0436 123.837 20.7365C122.006 23.1559 120.266 25.4594 119.827 28.2931C119.81 28.4174 119.794 28.5417 119.786 28.666C119.752 28.9477 119.728 29.2377 119.728 29.536C119.728 29.6603 119.719 29.7928 119.719 29.9171C119.719 31.392 120.399 32.6846 121.41 33.1237C122.363 33.538 123.547 33.1569 124.749 32.0548C125.155 31.6737 125.727 31.5328 126.273 31.6654C126.812 31.798 127.251 32.1957 127.433 32.726C129.198 37.7223 126.356 41.4758 123.846 44.7818C121.725 47.5824 119.719 50.2256 119.719 53.7304C119.719 55.2053 120.399 56.4979 121.41 56.937C122.363 57.3513 123.547 56.9702 124.749 55.8682C125.155 55.487 125.735 55.3462 126.273 55.4787C126.812 55.6113 127.251 56.009 127.433 56.5393C129.198 61.5356 126.356 65.2891 123.846 68.5951C121.725 71.3957 119.719 74.0389 119.719 77.5438C119.719 78.4552 118.974 79.2009 118.062 79.2009C117.151 79.2009 116.405 78.4552 116.405 77.5438C116.405 72.9286 118.957 69.5646 121.202 66.5983C123.191 63.98 124.567 62.0245 124.666 59.8868C123.125 60.5745 121.534 60.6242 120.084 59.9862C117.847 59.0085 116.405 56.5559 116.405 53.7387C116.405 49.1236 118.957 45.7595 121.202 42.7932C123.191 40.1749 124.567 38.2195 124.666 36.0817C123.125 36.7695 121.534 36.8192 120.084 36.1812C117.855 35.2034 116.405 32.7509 116.405 29.9337C116.405 29.8591 116.405 29.7763 116.405 29.7017C116.405 29.5277 116.405 29.3703 116.413 29.1963C116.413 29.1383 116.397 29.0885 116.397 29.0305C116.397 27.4728 116.695 26.0559 117.167 24.7468C117.341 24.0922 117.482 23.6614 117.499 23.6116C117.59 23.3216 117.764 23.0896 117.971 22.8991C118.891 21.1259 120.076 19.5516 121.194 18.0767C122.959 15.7484 124.243 13.9421 124.567 12.0696C123.05 12.7241 121.493 12.7573 120.067 12.1358C117.838 11.1581 116.388 8.70553 116.388 5.88837C116.388 5.72265 116.388 5.56521 116.397 5.3995C116.397 5.3415 116.388 5.28351 116.388 5.21722L116.405 5.21722C116.48 3.75064 116.761 2.30063 117.01 1.28148C117.225 0.394896 118.12 -0.151963 119.007 0.0634603L119.023 0.0468892Z" fill="#006F60"></path><path d="M104.242 0.0468657C105.128 0.262297 105.683 1.15716 105.46 2.04375C105.236 2.95518 104.996 4.25605 104.946 5.5072C105.029 6.85778 105.675 8.00121 106.62 8.4155C107.572 8.82979 108.757 8.44865 109.959 7.34665C110.365 6.9655 110.936 6.82464 111.483 6.95721C112.022 7.08978 112.461 7.4875 112.643 8.01779C113.058 9.19437 113.215 10.3047 113.182 11.3487C113.364 15.0607 111.102 18.0436 109.056 20.7365C107.224 23.1559 105.484 25.4594 105.045 28.2931C105.029 28.4174 105.012 28.5417 105.004 28.6659C104.971 28.9477 104.946 29.2377 104.946 29.536C104.946 29.6602 104.938 29.7928 104.938 29.9171C104.938 31.392 105.617 32.6845 106.628 33.1237C107.581 33.538 108.766 33.1568 109.967 32.0548C110.373 31.6737 110.945 31.5328 111.492 31.6654C112.03 31.798 112.469 32.1957 112.652 32.726C114.416 37.7223 111.574 41.4758 109.064 44.7818C106.943 47.5824 104.938 50.2255 104.938 53.7304C104.938 55.2053 105.617 56.4979 106.628 56.937C107.581 57.3513 108.766 56.9702 109.967 55.8682C110.373 55.487 110.953 55.3462 111.492 55.4787C112.03 55.6113 112.469 56.009 112.652 56.5393C114.416 61.5356 111.574 65.2891 109.064 68.5951C106.943 71.3957 104.938 74.0389 104.938 77.5438C104.938 78.4386 104.192 79.1843 103.28 79.1843C102.369 79.1843 101.623 78.4386 101.623 77.5272C101.623 72.912 104.175 69.548 106.421 66.5817C108.409 63.9634 109.785 62.0079 109.884 59.8702C108.343 60.5579 106.752 60.6076 105.302 59.9696C103.065 58.9919 101.623 56.5393 101.623 53.7221C101.623 49.107 104.175 45.7429 106.421 42.7766C108.409 40.1583 109.785 38.2029 109.884 36.0651C108.343 36.7529 106.752 36.8026 105.302 36.1646C103.073 35.1869 101.623 32.7343 101.623 29.9171C101.623 29.8425 101.623 29.7597 101.623 29.6851C101.623 29.5111 101.623 29.3537 101.632 29.1797C101.632 29.1217 101.615 29.072 101.615 29.014C101.615 27.4562 101.913 26.0394 102.386 24.7302C102.56 24.0756 102.7 23.6448 102.717 23.5951C102.808 23.3051 102.982 23.073 103.189 22.8825C104.109 21.1093 105.294 19.535 106.412 18.0602C108.177 15.7319 109.462 13.9256 109.785 12.053C108.268 12.7075 106.711 12.7407 105.286 12.1192C103.057 11.1415 101.607 8.68893 101.607 5.87177C101.607 5.70605 101.607 5.54863 101.615 5.38291C101.615 5.32491 101.607 5.26691 101.607 5.20062L101.623 5.20062C101.698 3.73405 101.98 2.28403 102.228 1.26488C102.444 0.378302 103.338 -0.168558 104.225 0.0468657L104.242 0.0468657Z" fill="#006F60"></path><path d="M32.1985 178.823C33.085 179.039 33.6402 179.934 33.4165 180.82C33.1927 181.732 32.9525 183.033 32.9027 184.284C32.9856 185.634 33.6319 186.778 34.5765 187.192C35.5293 187.606 36.7142 187.225 37.9156 186.123C38.3216 185.742 38.8934 185.601 39.4402 185.734C39.9788 185.866 40.4179 186.264 40.6002 186.794C41.0145 187.971 41.1719 189.081 41.1388 190.125C41.3211 193.837 39.0591 196.82 37.0125 199.513C35.1813 201.933 33.4413 204.236 33.0022 207.07C32.9856 207.194 32.969 207.318 32.9607 207.443C32.9276 207.724 32.9027 208.014 32.9027 208.313C32.9027 208.437 32.8945 208.569 32.8945 208.694C32.8945 210.169 33.5739 211.461 34.5848 211.9C35.5376 212.315 36.7225 211.933 37.9239 210.831C38.3299 210.45 38.9016 210.309 39.4485 210.442C39.9871 210.575 40.4262 210.972 40.6085 211.503C42.3734 216.499 39.5314 220.252 37.0208 223.558C34.8996 226.359 32.8945 229.002 32.8945 232.507C32.8945 233.982 33.5739 235.274 34.5848 235.714C35.5376 236.128 36.7225 235.747 37.9239 234.645C38.3299 234.264 38.9099 234.123 39.4485 234.255C39.9871 234.388 40.4262 234.786 40.6085 235.316C42.3734 240.312 39.5314 244.066 37.0208 247.372C34.8996 250.172 32.8945 252.815 32.8945 256.32C32.8945 257.215 32.1487 257.961 31.2373 257.961C30.3259 257.961 29.5801 257.215 29.5801 256.304C29.5801 251.689 32.1322 248.325 34.3776 245.358C36.3662 242.74 37.7416 240.785 37.8411 238.647C36.2999 239.335 34.709 239.384 33.259 238.746C31.0219 237.769 29.5801 235.316 29.5801 232.499C29.5801 227.884 32.1322 224.52 34.3776 221.553C36.3662 218.935 37.7416 216.979 37.8411 214.842C36.2999 215.529 34.709 215.579 33.259 214.941C31.0302 213.963 29.5801 211.511 29.5801 208.694C29.5801 208.619 29.5801 208.536 29.5801 208.462C29.5801 208.288 29.5801 208.13 29.5884 207.956C29.5884 207.898 29.5719 207.849 29.5719 207.791C29.5719 206.233 29.8701 204.816 30.3424 203.507C30.5164 202.852 30.6573 202.421 30.6739 202.372C30.765 202.082 30.939 201.85 31.1462 201.659C32.0659 199.886 33.2507 198.312 34.3693 196.837C36.1342 194.508 37.4185 192.702 37.7416 190.83C36.2253 191.484 34.6676 191.517 33.2425 190.896C31.0136 189.918 29.5636 187.466 29.5636 184.648C29.5636 184.483 29.5636 184.325 29.5719 184.16C29.5719 184.102 29.5636 184.044 29.5636 183.977L29.5801 183.977C29.6547 182.511 29.9364 181.061 30.185 180.041C30.4004 179.155 31.2953 178.608 32.1819 178.823L32.1985 178.823Z" fill="#006F60"></path><path d="M17.4167 178.824C18.3032 179.039 18.8584 179.934 18.6347 180.82C18.4109 181.732 18.1707 183.033 18.1209 184.284C18.2038 185.634 18.8501 186.778 19.7947 187.192C20.7475 187.606 21.9324 187.225 23.1338 186.123C23.5398 185.742 24.1116 185.601 24.6584 185.734C25.197 185.866 25.6361 186.264 25.8184 186.794C26.2327 187.971 26.3901 189.081 26.357 190.125C26.5393 193.837 24.2773 196.82 22.2307 199.513C20.3995 201.933 18.6595 204.236 18.2204 207.07C18.2038 207.194 18.1872 207.318 18.1789 207.443C18.1458 207.724 18.1209 208.014 18.1209 208.313C18.1209 208.437 18.1127 208.569 18.1127 208.694C18.1127 210.169 18.7921 211.461 19.803 211.9C20.7558 212.315 21.9407 211.933 23.1421 210.831C23.5481 210.45 24.1198 210.309 24.6667 210.442C25.2053 210.575 25.6444 210.972 25.8267 211.503C27.5916 216.499 24.7496 220.252 22.239 223.558C20.1178 226.359 18.1127 229.002 18.1127 232.507C18.1127 233.982 18.7921 235.275 19.803 235.714C20.7558 236.128 21.9407 235.747 23.1421 234.645C23.5481 234.264 24.1281 234.123 24.6667 234.255C25.2053 234.388 25.6444 234.786 25.8267 235.316C27.5916 240.312 24.7496 244.066 22.239 247.372C20.1178 250.172 18.1127 252.815 18.1127 256.32C18.1127 257.232 17.3669 257.978 16.4555 257.978C15.5441 257.978 14.7983 257.232 14.7983 256.32C14.7983 251.705 17.3504 248.341 19.5958 245.375C21.5844 242.757 22.9598 240.801 23.0593 238.663C21.5181 239.351 19.9272 239.401 18.4772 238.763C16.2401 237.785 14.7983 235.333 14.7983 232.515C14.7983 227.9 17.3504 224.536 19.5958 221.57C21.5844 218.952 22.9598 216.996 23.0593 214.858C21.5181 215.546 19.9272 215.596 18.4772 214.958C16.2484 213.98 14.7983 211.527 14.7983 208.71C14.7983 208.636 14.7983 208.553 14.7983 208.478C14.7983 208.304 14.7983 208.147 14.8066 207.973C14.8066 207.915 14.7901 207.865 14.7901 207.807C14.7901 206.249 15.0883 204.833 15.5606 203.523C15.7346 202.869 15.8755 202.438 15.8921 202.388C15.9832 202.098 16.1572 201.866 16.3644 201.676C17.2841 199.903 18.4689 198.328 19.5875 196.853C21.3524 194.525 22.6367 192.719 22.9598 190.846C21.4435 191.501 19.8858 191.534 18.4607 190.912C16.2318 189.935 14.7818 187.482 14.7818 184.665C14.7818 184.499 14.7818 184.342 14.7901 184.176C14.7901 184.118 14.7818 184.06 14.7818 183.994L14.7983 183.994C14.8729 182.527 15.1546 181.077 15.4032 180.058C15.6186 179.172 16.5135 178.625 17.4001 178.84L17.4167 178.824Z" fill="#006F60"></path><path d="M2.63485 178.823C3.52143 179.039 4.07658 179.934 3.85286 180.82C3.62915 181.732 3.38886 183.033 3.33915 184.284C3.422 185.634 4.06829 186.778 5.01287 187.192C5.96574 187.606 7.1506 187.225 8.35204 186.123C8.75804 185.742 9.32976 185.601 9.87662 185.734C10.4152 185.866 10.8543 186.264 11.0366 186.794C11.4509 187.971 11.6083 189.081 11.5752 190.125C11.7575 193.837 9.49548 196.82 7.44889 199.513C5.61773 201.933 3.87772 204.236 3.43857 207.07C3.422 207.194 3.40543 207.318 3.39714 207.443C3.364 207.724 3.33914 208.014 3.33914 208.313C3.33914 208.437 3.33085 208.569 3.33085 208.694C3.33085 210.169 4.01029 211.461 5.02115 211.9C5.97402 212.315 7.15888 211.933 8.36032 210.831C8.76633 210.45 9.33805 210.309 9.88491 210.442C10.4235 210.575 10.8626 210.972 11.0449 211.503C12.8098 216.499 9.96777 220.252 7.45717 223.558C5.33602 226.359 3.33085 229.002 3.33085 232.507C3.33085 233.982 4.01029 235.274 5.02115 235.714C5.97402 236.128 7.15888 235.747 8.36032 234.645C8.76632 234.264 9.34633 234.123 9.88491 234.255C10.4235 234.388 10.8626 234.786 11.0449 235.316C12.8098 240.312 9.96777 244.066 7.45717 247.372C5.33601 250.172 3.33085 252.815 3.33085 256.32C3.33085 257.215 2.58513 257.961 1.6737 257.961C0.762264 257.961 0.0165444 257.215 0.0165444 256.304C0.0165446 251.689 2.56856 248.325 4.81401 245.358C6.8026 242.74 8.17804 240.785 8.27747 238.647C6.73631 239.335 5.14544 239.384 3.69543 238.746C1.45827 237.769 0.0165453 235.316 0.0165455 232.499C0.0165457 227.884 2.56856 224.52 4.81401 221.553C6.8026 218.935 8.17804 216.979 8.27747 214.842C6.73631 215.529 5.14544 215.579 3.69543 214.941C1.46656 213.963 0.0165464 211.511 0.0165465 208.694C0.0165465 208.619 0.0165465 208.536 0.0165465 208.462C0.0165465 208.288 0.0165465 208.13 0.0248321 207.956C0.0248321 207.898 0.00826101 207.849 0.00826101 207.791C0.00826108 206.233 0.306548 204.816 0.778838 203.507C0.952841 202.852 1.0937 202.421 1.11027 202.372C1.20141 202.082 1.37541 201.85 1.58256 201.659C2.50228 199.886 3.68715 198.312 4.80573 196.837C6.5706 194.508 7.85489 192.702 8.17804 190.83C6.66174 191.484 5.10401 191.517 3.67886 190.896C1.44999 189.918 -2.36207e-05 187.466 -2.34976e-05 184.648C-2.34903e-05 184.483 -2.34834e-05 184.325 0.00826205 184.16C0.00826205 184.102 -2.34711e-05 184.044 -2.34682e-05 183.977L0.0165476 183.977C0.0911173 182.511 0.372837 181.061 0.62141 180.041C0.836841 179.155 1.7317 178.608 2.61828 178.823L2.63485 178.823Z" fill="#006F60"></path><path d="M32.1985 0.046867C33.085 0.262298 33.6402 1.15717 33.4165 2.04375C33.1927 2.95518 32.9525 4.25605 32.9027 5.5072C32.9856 6.85778 33.6319 8.00121 34.5765 8.4155C35.5293 8.8298 36.7142 8.44865 37.9156 7.34665C38.3216 6.9655 38.8934 6.82464 39.4402 6.95721C39.9788 7.08978 40.4179 7.4875 40.6002 8.01779C41.0145 9.19437 41.1719 10.3047 41.1388 11.3487C41.3211 15.0607 39.0591 18.0436 37.0125 20.7365C35.1813 23.1559 33.4413 25.4594 33.0022 28.2931C32.9856 28.4174 32.969 28.5417 32.9607 28.666C32.9276 28.9477 32.9027 29.2377 32.9027 29.536C32.9027 29.6602 32.8945 29.7928 32.8945 29.9171C32.8945 31.392 33.5739 32.6846 34.5848 33.1237C35.5376 33.538 36.7225 33.1568 37.9239 32.0548C38.3299 31.6737 38.9016 31.5328 39.4485 31.6654C39.9871 31.798 40.4262 32.1957 40.6085 32.726C42.3734 37.7223 39.5314 41.4758 37.0208 44.7818C34.8996 47.5824 32.8945 50.2255 32.8945 53.7304C32.8945 55.2053 33.5739 56.4979 34.5848 56.937C35.5376 57.3513 36.7225 56.9702 37.9239 55.8682C38.3299 55.487 38.9099 55.3462 39.4485 55.4787C39.9871 55.6113 40.4262 56.009 40.6085 56.5393C42.3734 61.5356 39.5314 65.2891 37.0208 68.5951C34.8996 71.3957 32.8945 74.0389 32.8945 77.5438C32.8945 78.4386 32.1487 79.1843 31.2373 79.1843C30.3259 79.1843 29.5801 78.4386 29.5801 77.5272C29.5801 72.912 32.1322 69.548 34.3776 66.5817C36.3662 63.9634 37.7416 62.0079 37.8411 59.8702C36.2999 60.5579 34.709 60.6076 33.259 59.9696C31.0219 58.9919 29.5801 56.5393 29.5801 53.7221C29.5801 49.107 32.1322 45.7429 34.3776 42.7766C36.3662 40.1583 37.7416 38.2029 37.8411 36.0652C36.2999 36.7529 34.709 36.8026 33.259 36.1646C31.0302 35.1869 29.5801 32.7343 29.5801 29.9171C29.5801 29.8425 29.5801 29.7597 29.5801 29.6851C29.5801 29.5111 29.5801 29.3537 29.5884 29.1797C29.5884 29.1217 29.5719 29.072 29.5719 29.014C29.5719 27.4562 29.8701 26.0394 30.3424 24.7302C30.5164 24.0756 30.6573 23.6448 30.6739 23.5951C30.765 23.3051 30.939 23.0731 31.1462 22.8825C32.0659 21.1093 33.2507 19.535 34.3693 18.0602C36.1342 15.7319 37.4185 13.9256 37.7416 12.053C36.2253 12.7075 34.6676 12.7407 33.2425 12.1192C31.0136 11.1415 29.5636 8.68893 29.5636 5.87177C29.5636 5.70605 29.5636 5.54863 29.5719 5.38291C29.5719 5.32491 29.5636 5.26691 29.5636 5.20062L29.5801 5.20062C29.6547 3.73405 29.9364 2.28403 30.185 1.26488C30.4004 0.378303 31.2953 -0.168557 32.1819 0.046867L32.1985 0.046867Z" fill="#006F60"></path><path d="M17.4167 0.0468892C18.3032 0.26232 18.8584 1.15719 18.6347 2.04376C18.4109 2.9552 18.1707 4.25606 18.1209 5.50722C18.2038 6.8578 18.8501 8.00123 19.7947 8.41553C20.7475 8.82981 21.9324 8.44868 23.1338 7.34666C23.5398 6.96552 24.1116 6.82466 24.6584 6.95723C25.197 7.0898 25.6361 7.48752 25.8184 8.01781C26.2327 9.19439 26.3901 10.3047 26.357 11.3487C26.5393 15.0607 24.2773 18.0436 22.2307 20.7365C20.3995 23.1559 18.6595 25.4594 18.2204 28.2931C18.2038 28.4174 18.1872 28.5417 18.1789 28.666C18.1458 28.9477 18.1209 29.2377 18.1209 29.536C18.1209 29.6603 18.1127 29.7928 18.1127 29.9171C18.1127 31.392 18.7921 32.6846 19.803 33.1237C20.7558 33.538 21.9407 33.1569 23.1421 32.0548C23.5481 31.6737 24.1198 31.5328 24.6667 31.6654C25.2053 31.798 25.6444 32.1957 25.8267 32.726C27.5916 37.7223 24.7496 41.4758 22.239 44.7818C20.1178 47.5824 18.1127 50.2256 18.1127 53.7304C18.1127 55.2053 18.7921 56.4979 19.803 56.937C20.7558 57.3513 21.9407 56.9702 23.1421 55.8682C23.5481 55.487 24.1281 55.3462 24.6667 55.4787C25.2053 55.6113 25.6444 56.009 25.8267 56.5393C27.5916 61.5356 24.7496 65.2891 22.239 68.5951C20.1178 71.3957 18.1127 74.0389 18.1127 77.5438C18.1127 78.4552 17.3669 79.2009 16.4555 79.2009C15.5441 79.2009 14.7983 78.4552 14.7983 77.5438C14.7983 72.9286 17.3504 69.5646 19.5958 66.5983C21.5844 63.98 22.9598 62.0245 23.0593 59.8868C21.5181 60.5745 19.9272 60.6242 18.4772 59.9862C16.2401 59.0085 14.7983 56.5559 14.7983 53.7387C14.7983 49.1236 17.3504 45.7595 19.5958 42.7932C21.5844 40.1749 22.9598 38.2195 23.0593 36.0817C21.5181 36.7695 19.9272 36.8192 18.4772 36.1812C16.2484 35.2034 14.7983 32.7509 14.7983 29.9337C14.7983 29.8591 14.7983 29.7763 14.7983 29.7017C14.7983 29.5277 14.7983 29.3703 14.8066 29.1963C14.8066 29.1383 14.7901 29.0885 14.7901 29.0305C14.7901 27.4728 15.0883 26.0559 15.5606 24.7468C15.7346 24.0922 15.8755 23.6614 15.8921 23.6116C15.9832 23.3216 16.1572 23.0896 16.3644 22.8991C17.2841 21.1259 18.4689 19.5516 19.5875 18.0767C21.3524 15.7484 22.6367 13.9421 22.9598 12.0696C21.4435 12.7241 19.8858 12.7573 18.4607 12.1358C16.2318 11.1581 14.7818 8.70553 14.7818 5.88837C14.7818 5.72265 14.7818 5.56521 14.7901 5.3995C14.7901 5.3415 14.7818 5.28351 14.7818 5.21722L14.7983 5.21722C14.8729 3.75064 15.1546 2.30063 15.4032 1.28148C15.6186 0.394896 16.5135 -0.151963 17.4001 0.0634603L17.4167 0.0468892Z" fill="#006F60"></path><path d="M2.63485 0.0468657C3.52143 0.262297 4.07658 1.15716 3.85286 2.04375C3.62915 2.95518 3.38886 4.25605 3.33915 5.5072C3.422 6.85778 4.06829 8.00121 5.01287 8.4155C5.96574 8.82979 7.1506 8.44865 8.35204 7.34665C8.75804 6.9655 9.32976 6.82464 9.87662 6.95721C10.4152 7.08978 10.8543 7.4875 11.0366 8.01779C11.4509 9.19437 11.6083 10.3047 11.5752 11.3487C11.7575 15.0607 9.49548 18.0436 7.44889 20.7365C5.61773 23.1559 3.87772 25.4594 3.43857 28.2931C3.422 28.4174 3.40543 28.5417 3.39714 28.6659C3.364 28.9477 3.33914 29.2377 3.33914 29.536C3.33914 29.6602 3.33085 29.7928 3.33085 29.9171C3.33085 31.392 4.01029 32.6845 5.02115 33.1237C5.97402 33.538 7.15888 33.1568 8.36032 32.0548C8.76633 31.6737 9.33805 31.5328 9.88491 31.6654C10.4235 31.798 10.8626 32.1957 11.0449 32.726C12.8098 37.7223 9.96777 41.4758 7.45717 44.7818C5.33602 47.5824 3.33085 50.2255 3.33085 53.7304C3.33085 55.2053 4.01029 56.4979 5.02115 56.937C5.97402 57.3513 7.15888 56.9702 8.36032 55.8682C8.76632 55.487 9.34633 55.3462 9.88491 55.4787C10.4235 55.6113 10.8626 56.009 11.0449 56.5393C12.8098 61.5356 9.96777 65.2891 7.45717 68.5951C5.33601 71.3957 3.33085 74.0389 3.33085 77.5438C3.33085 78.4386 2.58513 79.1843 1.6737 79.1843C0.762264 79.1843 0.0165444 78.4386 0.0165444 77.5272C0.0165446 72.912 2.56856 69.548 4.81401 66.5817C6.8026 63.9634 8.17804 62.0079 8.27747 59.8702C6.73631 60.5579 5.14544 60.6076 3.69543 59.9696C1.45827 58.9919 0.0165453 56.5393 0.0165455 53.7221C0.0165457 49.107 2.56856 45.7429 4.81401 42.7766C6.8026 40.1583 8.17804 38.2029 8.27747 36.0651C6.73631 36.7529 5.14544 36.8026 3.69543 36.1646C1.46656 35.1869 0.0165464 32.7343 0.0165465 29.9171C0.0165465 29.8425 0.0165465 29.7597 0.0165465 29.6851C0.0165465 29.5111 0.0165465 29.3537 0.0248321 29.1797C0.0248321 29.1217 0.00826101 29.072 0.00826101 29.014C0.00826108 27.4562 0.306548 26.0394 0.778838 24.7302C0.952841 24.0756 1.0937 23.6448 1.11027 23.5951C1.20141 23.3051 1.37541 23.073 1.58256 22.8825C2.50228 21.1093 3.68715 19.535 4.80573 18.0602C6.5706 15.7319 7.85489 13.9256 8.17804 12.053C6.66174 12.7075 5.10401 12.7407 3.67886 12.1192C1.44999 11.1415 -2.36207e-05 8.68893 -2.34976e-05 5.87177C-2.34903e-05 5.70605 -2.34834e-05 5.54863 0.00826205 5.38291C0.00826205 5.32491 -2.34711e-05 5.26691 -2.34682e-05 5.20062L0.0165476 5.20062C0.0911173 3.73405 0.372837 2.28403 0.62141 1.26488C0.836841 0.378302 1.7317 -0.168558 2.61828 0.0468657L2.63485 0.0468657Z" fill="#006F60"></path></svg> 